<svg width="200" height="200" viewBox="0 0 200 200" fill="none" xmlns="http://www.w3.org/2000/svg">
<g clip-path="url(#clip0_302_192)">
<rect width="200" height="200" rx="50" fill="#DFFF1A"/>
<path d="M141.164 72.8237H138.74V70.3997H141.164V72.8237ZM141.164 75.2477H138.74V72.8237H141.164V75.2477ZM141.164 77.6717H138.74V75.2477H141.164V77.6717ZM141.164 80.0957H138.74V77.6717H141.164V80.0957ZM141.164 82.5197H138.74V80.0957H141.164V82.5197ZM141.164 84.9438H138.74V82.5197H141.164V84.9438ZM141.164 87.3678H138.74V84.9438H141.164V87.3678ZM141.164 89.7918H138.74V87.3678H141.164V89.7918ZM143.588 89.7918H141.164V87.3678H143.588V89.7918ZM143.588 87.3678H141.164V84.9438H143.588V87.3678ZM143.588 84.9438H141.164V82.5197H143.588V84.9438ZM143.588 82.5197H141.164V80.0957H143.588V82.5197ZM143.588 80.0957H141.164V77.6717H143.588V80.0957ZM143.588 77.6717H141.164V75.2477H143.588V77.6717ZM143.588 75.2477H141.164V72.8237H143.588V75.2477ZM146.012 72.8237H143.588V70.3997H146.012V72.8237ZM150.86 72.8237H148.436V70.3997H150.86V72.8237ZM148.436 72.8237H146.012V70.3997H148.436V72.8237ZM148.436 75.2477H146.012V72.8237H148.436V75.2477ZM143.588 72.8237H141.164V70.3997H143.588V72.8237ZM141.164 97.0638H138.74V94.6398H141.164V97.0638ZM141.164 94.6398H138.74V92.2158H141.164V94.6398ZM141.164 92.2158H138.74V89.7918H141.164V92.2158ZM148.436 101.912H146.012V99.4878H148.436V101.912ZM148.436 97.0638H146.012V94.6398H148.436V97.0638ZM148.436 94.6398H146.012V92.2158H148.436V94.6398ZM148.436 92.2158H146.012V89.7918H148.436V92.2158ZM148.436 89.7918H146.012V87.3678H148.436V89.7918ZM148.436 87.3678H146.012V84.9438H148.436V87.3678ZM148.436 84.9438H146.012V82.5197H148.436V84.9438ZM148.436 82.5197H146.012V80.0957H148.436V82.5197ZM150.86 80.0957H148.436V77.6717H150.86V80.0957ZM150.86 77.6717H148.436V75.2477H150.86V77.6717ZM150.86 75.2477H148.436V72.8237H150.86V75.2477ZM150.86 82.5197H148.436V80.0957H150.86V82.5197ZM150.86 84.9438H148.436V82.5197H150.86V84.9438ZM150.86 87.3678H148.436V84.9438H150.86V87.3678ZM150.86 89.7918H148.436V87.3678H150.86V89.7918ZM150.86 92.2158H148.436V89.7918H150.86V92.2158ZM150.86 94.6398H148.436V92.2158H150.86V94.6398ZM150.86 97.0638H148.436V94.6398H150.86V97.0638ZM150.86 99.4878H148.436V97.0638H150.86V99.4878ZM150.86 101.912H148.436V99.4878H150.86V101.912ZM150.86 104.336H148.436V101.912H150.86V104.336ZM148.436 99.4878H146.012V97.0638H148.436V99.4878ZM150.86 106.76H148.436V104.336H150.86V106.76ZM150.86 109.184H148.436V106.76H150.86V109.184ZM146.012 101.912H143.588V99.4878H146.012V101.912ZM146.012 99.4878H143.588V97.0638H146.012V99.4878ZM146.012 97.0638H143.588V94.6398H146.012V97.0638ZM143.588 94.6398H141.164V92.2158H143.588V94.6398ZM143.588 92.2158H141.164V89.7918H143.588V92.2158ZM143.588 97.0638H141.164V94.6398H143.588V97.0638ZM143.588 99.4878H141.164V97.0638H143.588V99.4878ZM146.012 94.6398H143.588V92.2158H146.012V94.6398ZM146.012 92.2158H143.588V89.7918H146.012V92.2158ZM146.012 89.7918H143.588V87.3678H146.012V89.7918ZM146.012 87.3678H143.588V84.9438H146.012V87.3678ZM146.012 84.9438H143.588V82.5197H146.012V84.9438ZM146.012 82.5197H143.588V80.0957H146.012V82.5197ZM146.012 80.0957H143.588V77.6717H146.012V80.0957ZM146.012 77.6717H143.588V75.2477H146.012V77.6717ZM146.012 75.2477H143.588V72.8237H146.012V75.2477ZM148.436 77.6717H146.012V75.2477H148.436V77.6717ZM148.436 80.0957H146.012V77.6717H148.436V80.0957ZM170.252 72.8237H167.828V70.3997H170.252V72.8237ZM170.252 75.2477H167.828V72.8237H170.252V75.2477ZM170.252 77.6717H167.828V75.2477H170.252V77.6717ZM170.252 80.0957H167.828V77.6717H170.252V80.0957ZM170.252 82.5197H167.828V80.0957H170.252V82.5197ZM170.252 84.9438H167.828V82.5197H170.252V84.9438ZM170.252 87.3678H167.828V84.9438H170.252V87.3678ZM170.252 89.7918H167.828V87.3678H170.252V89.7918ZM172.676 89.7918H170.252V87.3678H172.676V89.7918ZM172.676 87.3678H170.252V84.9438H172.676V87.3678ZM172.676 84.9438H170.252V82.5197H172.676V84.9438ZM172.676 82.5197H170.252V80.0957H172.676V82.5197ZM172.676 80.0957H170.252V77.6717H172.676V80.0957ZM172.676 77.6717H170.252V75.2477H172.676V77.6717ZM172.676 75.2477H170.252V72.8237H172.676V75.2477ZM175.1 72.8237H172.676V70.3997H175.1V72.8237ZM179.948 72.8237H177.524V70.3997H179.948V72.8237ZM177.524 72.8237H175.1V70.3997H177.524V72.8237ZM177.524 75.2477H175.1V72.8237H177.524V75.2477ZM172.676 72.8237H170.252V70.3997H172.676V72.8237ZM170.252 109.184H167.828V106.76H170.252V109.184ZM170.252 106.76H167.828V104.336H170.252V106.76ZM170.252 104.336H167.828V101.912H170.252V104.336ZM170.252 101.912H167.828V99.4878H170.252V101.912ZM170.252 99.4878H167.828V97.0638H170.252V99.4878ZM170.252 97.0638H167.828V94.6398H170.252V97.0638ZM170.252 94.6398H167.828V92.2158H170.252V94.6398ZM170.252 92.2158H167.828V89.7918H170.252V92.2158ZM177.524 101.912H175.1V99.4878H177.524V101.912ZM177.524 97.0638H175.1V94.6398H177.524V97.0638ZM177.524 94.6398H175.1V92.2158H177.524V94.6398ZM177.524 92.2158H175.1V89.7918H177.524V92.2158ZM177.524 89.7918H175.1V87.3678H177.524V89.7918ZM177.524 87.3678H175.1V84.9438H177.524V87.3678ZM177.524 84.9438H175.1V82.5197H177.524V84.9438ZM177.524 82.5197H175.1V80.0957H177.524V82.5197ZM179.948 80.0957H177.524V77.6717H179.948V80.0957ZM179.948 77.6717H177.524V75.2477H179.948V77.6717ZM179.948 75.2477H177.524V72.8237H179.948V75.2477ZM179.948 82.5197H177.524V80.0957H179.948V82.5197ZM179.948 84.9438H177.524V82.5197H179.948V84.9438ZM179.948 87.3678H177.524V84.9438H179.948V87.3678ZM179.948 89.7918H177.524V87.3678H179.948V89.7918ZM179.948 92.2158H177.524V89.7918H179.948V92.2158ZM179.948 94.6398H177.524V92.2158H179.948V94.6398ZM179.948 97.0638H177.524V94.6398H179.948V97.0638ZM179.948 99.4878H177.524V97.0638H179.948V99.4878ZM177.524 99.4878H175.1V97.0638H177.524V99.4878ZM175.1 104.336H172.676V101.912H175.1V104.336ZM175.1 101.912H172.676V99.4878H175.1V101.912ZM175.1 99.4878H172.676V97.0638H175.1V99.4878ZM175.1 97.0638H172.676V94.6398H175.1V97.0638ZM172.676 94.6398H170.252V92.2158H172.676V94.6398ZM172.676 92.2158H170.252V89.7918H172.676V92.2158ZM172.676 97.0638H170.252V94.6398H172.676V97.0638ZM172.676 99.4878H170.252V97.0638H172.676V99.4878ZM172.676 101.912H170.252V99.4878H172.676V101.912ZM172.676 104.336H170.252V101.912H172.676V104.336ZM172.676 106.76H170.252V104.336H172.676V106.76ZM175.1 94.6398H172.676V92.2158H175.1V94.6398ZM175.1 92.2158H172.676V89.7918H175.1V92.2158ZM175.1 89.7918H172.676V87.3678H175.1V89.7918ZM175.1 87.3678H172.676V84.9438H175.1V87.3678ZM175.1 84.9438H172.676V82.5197H175.1V84.9438ZM175.1 82.5197H172.676V80.0957H175.1V82.5197ZM175.1 80.0957H172.676V77.6717H175.1V80.0957ZM175.1 77.6717H172.676V75.2477H175.1V77.6717ZM175.1 75.2477H172.676V72.8237H175.1V75.2477ZM177.524 77.6717H175.1V75.2477H177.524V77.6717ZM177.524 80.0957H175.1V77.6717H177.524V80.0957ZM155.708 114.032H153.284V111.608H155.708V114.032ZM158.132 114.032H155.708V111.608H158.132V114.032ZM162.98 114.032H160.556V111.608H162.98V114.032ZM165.404 114.032H162.98V111.608H165.404V114.032ZM167.828 111.608H165.404V109.184H167.828V111.608ZM165.404 111.608H162.98V109.184H165.404V111.608ZM162.98 111.608H160.556V109.184H162.98V111.608ZM158.132 111.608H155.708V109.184H158.132V111.608ZM155.708 111.608H153.284V109.184H155.708V111.608ZM153.284 111.608H150.86V109.184H153.284V111.608ZM153.284 109.184H150.86V106.76H153.284V109.184ZM153.284 106.76H150.86V104.336H153.284V106.76ZM155.708 109.184H153.284V106.76H155.708V109.184ZM158.132 109.184H155.708V106.76H158.132V109.184ZM162.98 109.184H160.556V106.76H162.98V109.184ZM165.404 109.184H162.98V106.76H165.404V109.184ZM167.828 109.184H165.404V106.76H167.828V109.184ZM167.828 106.76H165.404V104.336H167.828V106.76ZM165.404 106.76H162.98V104.336H165.404V106.76ZM162.98 106.76H160.556V104.336H162.98V106.76ZM158.132 106.76H155.708V104.336H158.132V106.76ZM155.708 106.76H153.284V104.336H155.708V106.76ZM153.284 104.336H150.86V101.912H153.284V104.336ZM155.708 104.336H153.284V101.912H155.708V104.336ZM167.828 104.336H165.404V101.912H167.828V104.336ZM165.404 104.336H162.98V101.912H165.404V104.336ZM167.828 101.912H165.404V99.4878H167.828V101.912ZM153.284 101.912H150.86V99.4878H153.284V101.912ZM148.436 106.76H146.012V104.336H148.436V106.76ZM148.436 104.336H146.012V101.912H148.436V104.336ZM146.012 104.336H143.588V101.912H146.012V104.336ZM143.588 101.912H141.164V99.4878H143.588V101.912ZM141.164 99.4878H138.74V97.0638H141.164V99.4878ZM153.284 99.4878H150.86V97.0638H153.284V99.4878ZM155.708 101.912H153.284V99.4878H155.708V101.912ZM158.132 104.336H155.708V101.912H158.132V104.336ZM162.98 104.336H160.556V101.912H162.98V104.336ZM165.404 101.912H162.98V99.4878H165.404V101.912ZM167.828 99.4878H165.404V97.0638H167.828V99.4878ZM158.132 101.912H155.708V99.4878H158.132V101.912ZM162.98 101.912H160.556V99.4878H162.98V101.912ZM155.708 99.4878H153.284V97.0638H155.708V99.4878ZM153.284 97.0638H150.86V94.6398H153.284V97.0638ZM165.404 99.4878H162.98V97.0638H165.404V99.4878ZM167.828 97.0638H165.404V94.6398H167.828V97.0638ZM160.556 99.4878V101.912H158.132V99.4878H160.556ZM160.556 101.912V104.336H158.132V101.912H160.556ZM160.556 104.336V106.76H158.132V104.336H160.556ZM160.556 106.76V109.184H158.132V106.76H160.556ZM160.556 109.184V111.608H158.132V109.184H160.556ZM160.556 111.608V114.032H158.132V111.608H160.556ZM155.708 114.032V116.456H153.284V114.032H155.708ZM158.132 114.032V116.456H155.708V114.032H158.132ZM160.556 114.032V116.456H158.132V114.032H160.556ZM162.98 114.032V116.456H160.556V114.032H162.98ZM165.404 114.032V116.456H162.98V114.032H165.404ZM165.404 116.456V118.88H162.98V116.456H165.404ZM165.404 118.88V121.304H162.98V118.88H165.404ZM165.404 121.304V123.728H162.98V121.304H165.404ZM162.98 121.304V123.728H160.556V121.304H162.98ZM162.98 118.88V121.304H160.556V118.88H162.98ZM162.98 116.456V118.88H160.556V116.456H162.98ZM160.556 116.456V118.88H158.132V116.456H160.556ZM160.556 118.88V121.304H158.132V118.88H160.556ZM160.556 121.304V123.728H158.132V121.304H160.556ZM158.132 121.304V123.728H155.708V121.304H158.132ZM158.132 118.88V121.304H155.708V118.88H158.132ZM158.132 116.456V118.88H155.708V116.456H158.132ZM155.708 116.456V118.88H153.284V116.456H155.708ZM155.708 118.88V121.304H153.284V118.88H155.708ZM155.708 121.304V123.728H153.284V121.304H155.708ZM155.708 123.728V126.152H153.284V123.728H155.708ZM158.132 123.728V126.152H155.708V123.728H158.132ZM160.556 123.728V126.152H158.132V123.728H160.556ZM162.98 123.728V126.152H160.556V123.728H162.98ZM165.404 123.728V126.152H162.98V123.728H165.404ZM165.404 126.152V128.576H162.98V126.152H165.404ZM162.98 126.152V128.576H160.556V126.152H162.98ZM160.556 126.152V128.576H158.132V126.152H160.556ZM158.132 126.152V128.576H155.708V126.152H158.132ZM158.132 128.576V131H155.708V128.576H158.132ZM155.708 128.576V131H153.284V128.576H155.708ZM155.708 126.152V128.576H153.284V126.152H155.708ZM160.556 128.576V131H158.132V128.576H160.556ZM162.98 128.576V131H160.556V128.576H162.98ZM165.404 128.576V131H162.98V128.576H165.404Z" fill="black"/>
<path d="M92.6369 128.576V131H90.2129V128.576H92.6369ZM92.6369 126.152V128.576H90.2129V126.152H92.6369ZM92.6369 123.728V126.152H90.2129V123.728H92.6369ZM92.6369 121.304V123.728H90.2129V121.304H92.6369ZM92.6369 118.88V121.304H90.2129V118.88H92.6369ZM92.6369 116.456V118.88H90.2129V116.456H92.6369ZM92.6369 114.032V116.456H90.2129V114.032H92.6369ZM92.6369 111.608V114.032H90.2129V111.608H92.6369ZM92.6369 109.184V111.608H90.2129V109.184H92.6369ZM92.6369 106.76V109.184H90.2129V106.76H92.6369ZM92.6369 104.336V106.76H90.2129V104.336H92.6369ZM92.6369 101.912V104.336H90.2129V101.912H92.6369ZM92.6369 99.4878V101.912H90.2129V99.4878H92.6369ZM92.6369 97.0638V99.4878H90.2129V97.0638H92.6369ZM92.6369 94.6398V97.0638H90.2129V94.6398H92.6369ZM95.0609 94.6398V97.0638H92.6369V94.6398H95.0609ZM95.0609 97.0638V99.4878H92.6369V97.0638H95.0609ZM95.0609 99.4878V101.912H92.6369V99.4878H95.0609ZM95.0609 101.912V104.336H92.6369V101.912H95.0609ZM95.0609 104.336V106.76H92.6369V104.336H95.0609ZM95.0609 106.76V109.184H92.6369V106.76H95.0609ZM95.0609 109.184V111.608H92.6369V109.184H95.0609ZM97.4849 111.608V114.032H95.0609V111.608H97.4849ZM97.4849 114.032V116.456H95.0609V114.032H97.4849ZM97.4849 116.456V118.88H95.0609V116.456H97.4849ZM97.4849 118.88V121.304H95.0609V118.88H97.4849ZM97.4849 121.304V123.728H95.0609V121.304H97.4849ZM97.4849 123.728V126.152H95.0609V123.728H97.4849ZM97.4849 126.152V128.576H95.0609V126.152H97.4849ZM97.4849 128.576V131H95.0609V128.576H97.4849ZM99.909 128.576V131H97.4849V128.576H99.909ZM102.333 128.576V131H99.909V128.576H102.333ZM102.333 126.152V128.576H99.909V126.152H102.333ZM102.333 123.728V126.152H99.909V123.728H102.333ZM102.333 121.304V123.728H99.909V121.304H102.333ZM102.333 118.88V121.304H99.909V118.88H102.333ZM102.333 116.456V118.88H99.909V116.456H102.333ZM102.333 114.032V116.456H99.909V114.032H102.333ZM102.333 111.608V114.032H99.909V111.608H102.333ZM99.909 111.608V114.032H97.4849V111.608H99.909ZM99.909 109.184V111.608H97.4849V109.184H99.909ZM99.909 114.032V116.456H97.4849V114.032H99.909ZM99.909 116.456V118.88H97.4849V116.456H99.909ZM99.909 118.88V121.304H97.4849V118.88H99.909ZM99.909 121.304V123.728H97.4849V121.304H99.909ZM99.909 123.728V126.152H97.4849V123.728H99.909ZM99.909 126.152V128.576H97.4849V126.152H99.909ZM95.0609 128.576V131H92.6369V128.576H95.0609ZM95.0609 126.152V128.576H92.6369V126.152H95.0609ZM95.0609 123.728V126.152H92.6369V123.728H95.0609ZM95.0609 121.304V123.728H92.6369V121.304H95.0609ZM95.0609 118.88V121.304H92.6369V118.88H95.0609ZM95.0609 116.456V118.88H92.6369V116.456H95.0609ZM95.0609 114.032V116.456H92.6369V114.032H95.0609ZM95.0609 111.608V114.032H92.6369V111.608H95.0609ZM92.6369 70.3997V72.8237H90.2129V70.3997H92.6369ZM92.6369 72.8237V75.2477H90.2129V72.8237H92.6369ZM92.6369 75.2477V77.6717H90.2129V75.2477H92.6369ZM92.6369 77.6717V80.0957H90.2129V77.6717H92.6369ZM92.6369 80.0957V82.5197H90.2129V80.0957H92.6369ZM92.6369 82.5197V84.9438H90.2129V82.5197H92.6369ZM92.6369 84.9438V87.3678H90.2129V84.9438H92.6369ZM92.6369 87.3678V89.7918H90.2129V87.3678H92.6369ZM92.6369 89.7918V92.2158H90.2129V89.7918H92.6369ZM92.6369 92.2158V94.6398H90.2129V92.2158H92.6369ZM99.909 70.3997V72.8237H97.4849V70.3997H99.909ZM99.909 72.8237V75.2477H97.4849V72.8237H99.909ZM99.909 75.2477V77.6717H97.4849V75.2477H99.909ZM99.909 77.6717V80.0957H97.4849V77.6717H99.909ZM99.909 80.0957V82.5197H97.4849V80.0957H99.909ZM99.909 82.5197V84.9438H97.4849V82.5197H99.909ZM99.909 87.3678V89.7918H97.4849V87.3678H99.909ZM99.909 89.7918V92.2158H97.4849V89.7918H99.909ZM99.909 92.2158V94.6398H97.4849V92.2158H99.909ZM99.909 94.6398V97.0638H97.4849V94.6398H99.909ZM99.909 97.0638V99.4878H97.4849V97.0638H99.909ZM99.909 99.4878V101.912H97.4849V99.4878H99.909ZM99.909 101.912V104.336H97.4849V101.912H99.909ZM102.333 104.336V106.76H99.909V104.336H102.333ZM102.333 106.76V109.184H99.909V106.76H102.333ZM102.333 109.184V111.608H99.909V109.184H102.333ZM102.333 101.912V104.336H99.909V101.912H102.333ZM102.333 99.4878V101.912H99.909V99.4878H102.333ZM102.333 97.0638V99.4878H99.909V97.0638H102.333ZM102.333 94.6398V97.0638H99.909V94.6398H102.333ZM102.333 92.2158V94.6398H99.909V92.2158H102.333ZM102.333 89.7918V92.2158H99.909V89.7918H102.333ZM102.333 87.3678V89.7918H99.909V87.3678H102.333ZM102.333 84.9438V87.3678H99.909V84.9438H102.333ZM102.333 82.5197V84.9438H99.909V82.5197H102.333ZM102.333 80.0957V82.5197H99.909V80.0957H102.333ZM99.909 84.9438V87.3678H97.4849V84.9438H99.909ZM102.333 77.6717V80.0957H99.909V77.6717H102.333ZM102.333 75.2477V77.6717H99.909V75.2477H102.333ZM102.333 72.8237V75.2477H99.909V72.8237H102.333ZM102.333 70.3997V72.8237H99.909V70.3997H102.333ZM97.4849 70.3997V72.8237H95.0609V70.3997H97.4849ZM95.0609 70.3997V72.8237H92.6369V70.3997H95.0609ZM95.0609 72.8237V75.2477H92.6369V72.8237H95.0609ZM97.4849 72.8237V75.2477H95.0609V72.8237H97.4849ZM97.4849 75.2477V77.6717H95.0609V75.2477H97.4849ZM97.4849 77.6717V80.0957H95.0609V77.6717H97.4849ZM97.4849 80.0957V82.5197H95.0609V80.0957H97.4849ZM97.4849 82.5197V84.9438H95.0609V82.5197H97.4849ZM97.4849 84.9438V87.3678H95.0609V84.9438H97.4849ZM97.4849 87.3678V89.7918H95.0609V87.3678H97.4849ZM95.0609 89.7918V92.2158H92.6369V89.7918H95.0609ZM95.0609 92.2158V94.6398H92.6369V92.2158H95.0609ZM95.0609 87.3678V89.7918H92.6369V87.3678H95.0609ZM95.0609 84.9438V87.3678H92.6369V84.9438H95.0609ZM95.0609 82.5197V84.9438H92.6369V82.5197H95.0609ZM95.0609 80.0957V82.5197H92.6369V80.0957H95.0609ZM95.0609 77.6717V80.0957H92.6369V77.6717H95.0609ZM95.0609 75.2477V77.6717H92.6369V75.2477H95.0609ZM97.4849 89.7918V92.2158H95.0609V89.7918H97.4849ZM97.4849 92.2158V94.6398H95.0609V92.2158H97.4849ZM97.4849 94.6398V97.0638H95.0609V94.6398H97.4849ZM97.4849 97.0638V99.4878H95.0609V97.0638H97.4849ZM97.4849 99.4878V101.912H95.0609V99.4878H97.4849ZM97.4849 101.912V104.336H95.0609V101.912H97.4849ZM97.4849 104.336V106.76H95.0609V104.336H97.4849ZM97.4849 106.76V109.184H95.0609V106.76H97.4849ZM97.4849 109.184V111.608H95.0609V109.184H97.4849ZM99.909 106.76V109.184H97.4849V106.76H99.909ZM99.909 104.336V106.76H97.4849V104.336H99.909ZM104.757 70.3997V72.8237H102.333V70.3997H104.757ZM107.181 70.3997V72.8237H104.757V70.3997H107.181ZM107.181 72.8237V75.2477H104.757V72.8237H107.181ZM104.757 72.8237V75.2477H102.333V72.8237H104.757ZM104.757 75.2477V77.6717H102.333V75.2477H104.757ZM107.181 75.2477V77.6717H104.757V75.2477H107.181ZM107.181 77.6717V80.0957H104.757V77.6717H107.181ZM104.757 77.6717V80.0957H102.333V77.6717H104.757ZM104.757 80.0957V82.5197H102.333V80.0957H104.757ZM107.181 80.0957V82.5197H104.757V80.0957H107.181ZM104.757 128.576V131H102.333V128.576H104.757ZM107.181 128.576V131H104.757V128.576H107.181ZM107.181 126.152V128.576H104.757V126.152H107.181ZM107.181 123.728V126.152H104.757V123.728H107.181ZM107.181 121.304V123.728H104.757V121.304H107.181ZM107.181 118.88V121.304H104.757V118.88H107.181ZM104.757 118.88V121.304H102.333V118.88H104.757ZM104.757 121.304V123.728H102.333V121.304H104.757ZM104.757 123.728V126.152H102.333V123.728H104.757ZM104.757 126.152V128.576H102.333V126.152H104.757ZM119.301 89.7918V92.2158H116.877V89.7918H119.301ZM119.301 87.3678V89.7918H116.877V87.3678H119.301ZM119.301 84.9438V87.3678H116.877V84.9438H119.301ZM116.877 82.5197V84.9438H114.453V82.5197H116.877ZM114.453 80.0957V82.5197H112.029V80.0957H114.453ZM112.029 80.0957V82.5197H109.605V80.0957H112.029ZM109.605 80.0957V82.5197H107.181V80.0957H109.605ZM109.605 70.3997V72.8237H107.181V70.3997H109.605ZM112.029 70.3997V72.8237H109.605V70.3997H112.029ZM114.453 70.3997V72.8237H112.029V70.3997H114.453ZM116.877 70.3997V72.8237H114.453V70.3997H116.877ZM116.877 72.8237V75.2477H114.453V72.8237H116.877ZM116.877 75.2477V77.6717H114.453V75.2477H116.877ZM116.877 77.6717V80.0957H114.453V77.6717H116.877ZM114.453 77.6717V80.0957H112.029V77.6717H114.453ZM114.453 75.2477V77.6717H112.029V75.2477H114.453ZM112.029 75.2477V77.6717H109.605V75.2477H112.029ZM109.605 75.2477V77.6717H107.181V75.2477H109.605ZM109.605 72.8237V75.2477H107.181V72.8237H109.605ZM112.029 72.8237V75.2477H109.605V72.8237H112.029ZM114.453 72.8237V75.2477H112.029V72.8237H114.453ZM109.605 77.6717V80.0957H107.181V77.6717H109.605ZM112.029 77.6717V80.0957H109.605V77.6717H112.029ZM116.877 80.0957V82.5197H114.453V80.0957H116.877ZM119.301 82.5197V84.9438H116.877V82.5197H119.301ZM119.301 80.0957V82.5197H116.877V80.0957H119.301ZM119.301 77.6717V80.0957H116.877V77.6717H119.301ZM119.301 75.2477V77.6717H116.877V75.2477H119.301ZM119.301 72.8237V75.2477H116.877V72.8237H119.301ZM119.301 70.3997V72.8237H116.877V70.3997H119.301ZM119.301 92.2158V94.6398H116.877V92.2158H119.301ZM119.301 94.6398V97.0638H116.877V94.6398H119.301ZM119.301 97.0638V99.4878H116.877V97.0638H119.301ZM119.301 99.4878V101.912H116.877V99.4878H119.301ZM119.301 101.912V104.336H116.877V101.912H119.301ZM119.301 104.336V106.76H116.877V104.336H119.301ZM119.301 109.184V111.608H116.877V109.184H119.301ZM119.301 106.76V109.184H116.877V106.76H119.301ZM119.301 111.608V114.032H116.877V111.608H119.301ZM119.301 114.032V116.456H116.877V114.032H119.301ZM109.605 118.88V121.304H107.181V118.88H109.605ZM112.029 118.88V121.304H109.605V118.88H112.029ZM114.453 118.88V121.304H112.029V118.88H114.453ZM116.877 116.456V118.88H114.453V116.456H116.877ZM119.301 116.456V118.88H116.877V116.456H119.301ZM119.301 118.88V121.304H116.877V118.88H119.301ZM116.877 118.88V121.304H114.453V118.88H116.877ZM119.301 121.304V123.728H116.877V121.304H119.301ZM119.301 123.728V126.152H116.877V123.728H119.301ZM119.301 126.152V128.576H116.877V126.152H119.301ZM119.301 128.576V131H116.877V128.576H119.301ZM116.877 128.576V131H114.453V128.576H116.877ZM116.877 126.152V128.576H114.453V126.152H116.877ZM114.453 126.152V128.576H112.029V126.152H114.453ZM112.029 128.576V131H109.605V128.576H112.029ZM109.605 128.576V131H107.181V128.576H109.605ZM114.453 128.576V131H112.029V128.576H114.453ZM112.029 126.152V128.576H109.605V126.152H112.029ZM109.605 126.152V128.576H107.181V126.152H109.605ZM109.605 123.728V126.152H107.181V123.728H109.605ZM112.029 123.728V126.152H109.605V123.728H112.029ZM114.453 123.728V126.152H112.029V123.728H114.453ZM116.877 123.728V126.152H114.453V123.728H116.877ZM116.877 121.304V123.728H114.453V121.304H116.877ZM114.453 121.304V123.728H112.029V121.304H114.453ZM112.029 121.304V123.728H109.605V121.304H112.029ZM109.605 121.304V123.728H107.181V121.304H109.605ZM121.725 72.8237V75.2477H119.301V72.8237H121.725ZM124.149 72.8237V75.2477H121.725V72.8237H124.149ZM124.149 75.2477V77.6717H121.725V75.2477H124.149ZM126.573 75.2477V77.6717H124.149V75.2477H126.573ZM126.573 77.6717V80.0957H124.149V77.6717H126.573ZM126.573 80.0957V82.5197H124.149V80.0957H126.573ZM128.997 80.0957V82.5197H126.573V80.0957H128.997ZM128.997 82.5197V84.9438H126.573V82.5197H128.997ZM128.997 84.9438V87.3678H126.573V84.9438H128.997ZM128.997 87.3678V89.7918H126.573V87.3678H128.997ZM128.997 89.7918V92.2158H126.573V89.7918H128.997ZM128.997 92.2158V94.6398H126.573V92.2158H128.997ZM128.997 94.6398V97.0638H126.573V94.6398H128.997ZM126.573 97.0638V99.4878H124.149V97.0638H126.573ZM124.149 99.4878V101.912H121.725V99.4878H124.149ZM126.573 101.912V104.336H124.149V101.912H126.573ZM128.997 104.336V106.76H126.573V104.336H128.997ZM121.725 126.152V128.576H119.301V126.152H121.725ZM124.149 126.152V128.576H121.725V126.152H124.149ZM126.573 123.728V126.152H124.149V123.728H126.573ZM128.997 118.88V121.304H126.573V118.88H128.997ZM124.149 123.728V126.152H121.725V123.728H124.149ZM124.149 121.304V123.728H121.725V121.304H124.149ZM126.573 121.304V123.728H124.149V121.304H126.573ZM128.997 116.456V118.88H126.573V116.456H128.997ZM128.997 114.032V116.456H126.573V114.032H128.997ZM128.997 111.608V114.032H126.573V111.608H128.997ZM128.997 109.184V111.608H126.573V109.184H128.997ZM128.997 106.76V109.184H126.573V106.76H128.997ZM121.725 101.912V104.336H119.301V101.912H121.725ZM124.149 101.912V104.336H121.725V101.912H124.149ZM124.149 104.336V106.76H121.725V104.336H124.149ZM121.725 104.336V106.76H119.301V104.336H121.725ZM126.573 104.336V106.76H124.149V104.336H126.573ZM126.573 106.76V109.184H124.149V106.76H126.573ZM126.573 109.184V111.608H124.149V109.184H126.573ZM126.573 111.608V114.032H124.149V111.608H126.573ZM126.573 114.032V116.456H124.149V114.032H126.573ZM126.573 116.456V118.88H124.149V116.456H126.573ZM126.573 118.88V121.304H124.149V118.88H126.573ZM124.149 118.88V121.304H121.725V118.88H124.149ZM124.149 116.456V118.88H121.725V116.456H124.149ZM124.149 114.032V116.456H121.725V114.032H124.149ZM124.149 111.608V114.032H121.725V111.608H124.149ZM124.149 109.184V111.608H121.725V109.184H124.149ZM124.149 106.76V109.184H121.725V106.76H124.149ZM121.725 106.76V109.184H119.301V106.76H121.725ZM121.725 109.184V111.608H119.301V109.184H121.725ZM121.725 111.608V114.032H119.301V111.608H121.725ZM121.725 114.032V116.456H119.301V114.032H121.725ZM121.725 116.456V118.88H119.301V116.456H121.725ZM121.725 118.88V121.304H119.301V118.88H121.725ZM121.725 121.304V123.728H119.301V121.304H121.725ZM121.725 123.728V126.152H119.301V123.728H121.725ZM121.725 75.2477V77.6717H119.301V75.2477H121.725ZM121.725 77.6717V80.0957H119.301V77.6717H121.725ZM121.725 80.0957V82.5197H119.301V80.0957H121.725ZM121.725 82.5197V84.9438H119.301V82.5197H121.725ZM121.725 84.9438V87.3678H119.301V84.9438H121.725ZM121.725 87.3678V89.7918H119.301V87.3678H121.725ZM121.725 89.7918V92.2158H119.301V89.7918H121.725ZM121.725 92.2158V94.6398H119.301V92.2158H121.725ZM121.725 94.6398V97.0638H119.301V94.6398H121.725ZM121.725 97.0638V99.4878H119.301V97.0638H121.725ZM121.725 99.4878V101.912H119.301V99.4878H121.725ZM124.149 97.0638V99.4878H121.725V97.0638H124.149ZM124.149 94.6398V97.0638H121.725V94.6398H124.149ZM124.149 92.2158V94.6398H121.725V92.2158H124.149ZM124.149 89.7918V92.2158H121.725V89.7918H124.149ZM124.149 87.3678V89.7918H121.725V87.3678H124.149ZM124.149 84.9438V87.3678H121.725V84.9438H124.149ZM124.149 82.5197V84.9438H121.725V82.5197H124.149ZM124.149 80.0957V82.5197H121.725V80.0957H124.149ZM124.149 77.6717V80.0957H121.725V77.6717H124.149ZM126.573 82.5197V84.9438H124.149V82.5197H126.573ZM126.573 84.9438V87.3678H124.149V84.9438H126.573ZM126.573 87.3678V89.7918H124.149V87.3678H126.573ZM126.573 89.7918V92.2158H124.149V89.7918H126.573ZM126.573 92.2158V94.6398H124.149V92.2158H126.573ZM126.573 94.6398V97.0638H124.149V94.6398H126.573ZM128.997 97.0638V99.4878H126.573V97.0638H128.997ZM128.997 99.4878V101.912H126.573V99.4878H128.997ZM128.997 101.912V104.336H126.573V101.912H128.997ZM126.573 99.4878V101.912H124.149V99.4878H126.573Z" fill="black"/>
<path d="M70.799 128.576V131H68.375V128.576H70.799ZM70.799 126.152V128.576H68.375V126.152H70.799ZM70.799 123.728V126.152H68.375V123.728H70.799ZM70.799 121.304V123.728H68.375V121.304H70.799ZM70.799 118.88V121.304H68.375V118.88H70.799ZM70.799 116.456V118.88H68.375V116.456H70.799ZM70.799 114.032V116.456H68.375V114.032H70.799ZM70.799 111.608V114.032H68.375V111.608H70.799ZM70.799 109.184V111.608H68.375V109.184H70.799ZM70.799 106.76V109.184H68.375V106.76H70.799ZM70.799 104.336V106.76H68.375V104.336H70.799ZM70.799 101.912V104.336H68.375V101.912H70.799ZM70.799 99.4878V101.912H68.375V99.4878H70.799ZM70.799 97.0638V99.4878H68.375V97.0638H70.799ZM70.799 94.6398V97.0638H68.375V94.6398H70.799ZM73.223 94.6398V97.0638H70.799V94.6398H73.223ZM73.223 97.0638V99.4878H70.799V97.0638H73.223ZM73.223 99.4878V101.912H70.799V99.4878H73.223ZM73.223 101.912V104.336H70.799V101.912H73.223ZM73.223 104.336V106.76H70.799V104.336H73.223ZM73.223 106.76V109.184H70.799V106.76H73.223ZM73.223 109.184V111.608H70.799V109.184H73.223ZM75.647 111.608V114.032H73.223V111.608H75.647ZM75.647 114.032V116.456H73.223V114.032H75.647ZM75.647 116.456V118.88H73.223V116.456H75.647ZM75.647 118.88V121.304H73.223V118.88H75.647ZM75.647 121.304V123.728H73.223V121.304H75.647ZM75.647 123.728V126.152H73.223V123.728H75.647ZM75.647 126.152V128.576H73.223V126.152H75.647ZM75.647 128.576V131H73.223V128.576H75.647ZM78.0711 128.576V131H75.647V128.576H78.0711ZM80.4951 128.576V131H78.0711V128.576H80.4951ZM80.4951 126.152V128.576H78.0711V126.152H80.4951ZM80.4951 123.728V126.152H78.0711V123.728H80.4951ZM80.4951 121.304V123.728H78.0711V121.304H80.4951ZM80.4951 118.88V121.304H78.0711V118.88H80.4951ZM80.4951 116.456V118.88H78.0711V116.456H80.4951ZM80.4951 114.032V116.456H78.0711V114.032H80.4951ZM80.4951 111.608V114.032H78.0711V111.608H80.4951ZM78.0711 111.608V114.032H75.647V111.608H78.0711ZM78.0711 109.184V111.608H75.647V109.184H78.0711ZM78.0711 114.032V116.456H75.647V114.032H78.0711ZM78.0711 116.456V118.88H75.647V116.456H78.0711ZM78.0711 118.88V121.304H75.647V118.88H78.0711ZM78.0711 121.304V123.728H75.647V121.304H78.0711ZM78.0711 123.728V126.152H75.647V123.728H78.0711ZM78.0711 126.152V128.576H75.647V126.152H78.0711ZM73.223 128.576V131H70.799V128.576H73.223ZM73.223 126.152V128.576H70.799V126.152H73.223ZM73.223 123.728V126.152H70.799V123.728H73.223ZM73.223 121.304V123.728H70.799V121.304H73.223ZM73.223 118.88V121.304H70.799V118.88H73.223ZM73.223 116.456V118.88H70.799V116.456H73.223ZM73.223 114.032V116.456H70.799V114.032H73.223ZM73.223 111.608V114.032H70.799V111.608H73.223ZM70.799 70.3997V72.8237H68.375V70.3997H70.799ZM70.799 72.8237V75.2477H68.375V72.8237H70.799ZM70.799 75.2477V77.6717H68.375V75.2477H70.799ZM70.799 77.6717V80.0957H68.375V77.6717H70.799ZM70.799 80.0957V82.5197H68.375V80.0957H70.799ZM70.799 82.5197V84.9438H68.375V82.5197H70.799ZM70.799 84.9438V87.3678H68.375V84.9438H70.799ZM70.799 87.3678V89.7918H68.375V87.3678H70.799ZM70.799 89.7918V92.2158H68.375V89.7918H70.799ZM70.799 92.2158V94.6398H68.375V92.2158H70.799ZM78.0711 70.3997V72.8237H75.647V70.3997H78.0711ZM78.0711 72.8237V75.2477H75.647V72.8237H78.0711ZM78.0711 75.2477V77.6717H75.647V75.2477H78.0711ZM78.0711 77.6717V80.0957H75.647V77.6717H78.0711ZM78.0711 80.0957V82.5197H75.647V80.0957H78.0711ZM78.0711 82.5197V84.9438H75.647V82.5197H78.0711ZM78.0711 87.3678V89.7918H75.647V87.3678H78.0711ZM78.0711 89.7918V92.2158H75.647V89.7918H78.0711ZM78.0711 92.2158V94.6398H75.647V92.2158H78.0711ZM78.0711 94.6398V97.0638H75.647V94.6398H78.0711ZM78.0711 97.0638V99.4878H75.647V97.0638H78.0711ZM78.0711 99.4878V101.912H75.647V99.4878H78.0711ZM78.0711 101.912V104.336H75.647V101.912H78.0711ZM80.4951 104.336V106.76H78.0711V104.336H80.4951ZM80.4951 106.76V109.184H78.0711V106.76H80.4951ZM80.4951 109.184V111.608H78.0711V109.184H80.4951ZM80.4951 101.912V104.336H78.0711V101.912H80.4951ZM80.4951 99.4878V101.912H78.0711V99.4878H80.4951ZM80.4951 97.0638V99.4878H78.0711V97.0638H80.4951ZM80.4951 94.6398V97.0638H78.0711V94.6398H80.4951ZM80.4951 92.2158V94.6398H78.0711V92.2158H80.4951ZM80.4951 89.7918V92.2158H78.0711V89.7918H80.4951ZM80.4951 87.3678V89.7918H78.0711V87.3678H80.4951ZM80.4951 84.9438V87.3678H78.0711V84.9438H80.4951ZM80.4951 82.5197V84.9438H78.0711V82.5197H80.4951ZM80.4951 80.0957V82.5197H78.0711V80.0957H80.4951ZM78.0711 84.9438V87.3678H75.647V84.9438H78.0711ZM80.4951 77.6717V80.0957H78.0711V77.6717H80.4951ZM80.4951 75.2477V77.6717H78.0711V75.2477H80.4951ZM80.4951 72.8237V75.2477H78.0711V72.8237H80.4951ZM80.4951 70.3997V72.8237H78.0711V70.3997H80.4951ZM75.647 70.3997V72.8237H73.223V70.3997H75.647ZM73.223 70.3997V72.8237H70.799V70.3997H73.223ZM73.223 72.8237V75.2477H70.799V72.8237H73.223ZM75.647 72.8237V75.2477H73.223V72.8237H75.647ZM75.647 75.2477V77.6717H73.223V75.2477H75.647ZM75.647 77.6717V80.0957H73.223V77.6717H75.647ZM75.647 80.0957V82.5197H73.223V80.0957H75.647ZM75.647 82.5197V84.9438H73.223V82.5197H75.647ZM75.647 84.9438V87.3678H73.223V84.9438H75.647ZM75.647 87.3678V89.7918H73.223V87.3678H75.647ZM73.223 89.7918V92.2158H70.799V89.7918H73.223ZM73.223 92.2158V94.6398H70.799V92.2158H73.223ZM73.223 87.3678V89.7918H70.799V87.3678H73.223ZM73.223 84.9438V87.3678H70.799V84.9438H73.223ZM73.223 82.5197V84.9438H70.799V82.5197H73.223ZM73.223 80.0957V82.5197H70.799V80.0957H73.223ZM73.223 77.6717V80.0957H70.799V77.6717H73.223ZM73.223 75.2477V77.6717H70.799V75.2477H73.223ZM75.647 89.7918V92.2158H73.223V89.7918H75.647ZM75.647 92.2158V94.6398H73.223V92.2158H75.647ZM75.647 94.6398V97.0638H73.223V94.6398H75.647ZM75.647 97.0638V99.4878H73.223V97.0638H75.647ZM75.647 99.4878V101.912H73.223V99.4878H75.647ZM75.647 101.912V104.336H73.223V101.912H75.647ZM75.647 104.336V106.76H73.223V104.336H75.647ZM75.647 106.76V109.184H73.223V106.76H75.647ZM75.647 109.184V111.608H73.223V109.184H75.647ZM78.0711 106.76V109.184H75.647V106.76H78.0711ZM78.0711 104.336V106.76H75.647V104.336H78.0711Z" fill="black"/>
<path d="M22.2717 72.8237H19.8477V70.3997H22.2717V72.8237ZM22.2717 75.2477H19.8477V72.8237H22.2717V75.2477ZM22.2717 77.6717H19.8477V75.2477H22.2717V77.6717ZM22.2717 80.0957H19.8477V77.6717H22.2717V80.0957ZM22.2717 82.5197H19.8477V80.0957H22.2717V82.5197ZM22.2717 84.9438H19.8477V82.5197H22.2717V84.9438ZM22.2717 87.3678H19.8477V84.9438H22.2717V87.3678ZM22.2717 89.7918H19.8477V87.3678H22.2717V89.7918ZM22.2717 92.2158H19.8477V89.7918H22.2717V92.2158ZM22.2717 94.6398H19.8477V92.2158H22.2717V94.6398ZM22.2717 97.0638H19.8477V94.6398H22.2717V97.0638ZM22.2717 99.4878H19.8477V97.0638H22.2717V99.4878ZM22.2717 101.912H19.8477V99.4878H22.2717V101.912ZM22.2717 104.336H19.8477V101.912H22.2717V104.336ZM22.2717 106.76H19.8477V104.336H22.2717V106.76ZM24.6957 106.76H22.2717V104.336H24.6957V106.76ZM24.6957 104.336H22.2717V101.912H24.6957V104.336ZM24.6957 101.912H22.2717V99.4878H24.6957V101.912ZM24.6957 99.4878H22.2717V97.0638H24.6957V99.4878ZM24.6957 97.0638H22.2717V94.6398H24.6957V97.0638ZM24.6957 94.6398H22.2717V92.2158H24.6957V94.6398ZM24.6957 92.2158H22.2717V89.7918H24.6957V92.2158ZM27.1197 89.7918H24.6957V87.3678H27.1197V89.7918ZM27.1197 87.3678H24.6957V84.9438H27.1197V87.3678ZM27.1197 84.9438H24.6957V82.5197H27.1197V84.9438ZM27.1197 82.5197H24.6957V80.0957H27.1197V82.5197ZM27.1197 80.0957H24.6957V77.6717H27.1197V80.0957ZM27.1197 77.6717H24.6957V75.2477H27.1197V77.6717ZM27.1197 75.2477H24.6957V72.8237H27.1197V75.2477ZM27.1197 72.8237H24.6957V70.3997H27.1197V72.8237ZM29.5437 72.8237H27.1197V70.3997H29.5437V72.8237ZM31.9677 72.8237H29.5437V70.3997H31.9677V72.8237ZM31.9677 75.2477H29.5437V72.8237H31.9677V75.2477ZM31.9677 77.6717H29.5437V75.2477H31.9677V77.6717ZM31.9677 80.0957H29.5437V77.6717H31.9677V80.0957ZM31.9677 82.5197H29.5437V80.0957H31.9677V82.5197ZM31.9677 84.9438H29.5437V82.5197H31.9677V84.9438ZM31.9677 87.3678H29.5437V84.9438H31.9677V87.3678ZM31.9677 89.7918H29.5437V87.3678H31.9677V89.7918ZM29.5437 89.7918H27.1197V87.3678H29.5437V89.7918ZM29.5437 92.2158H27.1197V89.7918H29.5437V92.2158ZM29.5437 87.3678H27.1197V84.9438H29.5437V87.3678ZM29.5437 84.9438H27.1197V82.5197H29.5437V84.9438ZM29.5437 82.5197H27.1197V80.0957H29.5437V82.5197ZM29.5437 80.0957H27.1197V77.6717H29.5437V80.0957ZM29.5437 77.6717H27.1197V75.2477H29.5437V77.6717ZM29.5437 75.2477H27.1197V72.8237H29.5437V75.2477ZM24.6957 72.8237H22.2717V70.3997H24.6957V72.8237ZM24.6957 75.2477H22.2717V72.8237H24.6957V75.2477ZM24.6957 77.6717H22.2717V75.2477H24.6957V77.6717ZM24.6957 80.0957H22.2717V77.6717H24.6957V80.0957ZM24.6957 82.5197H22.2717V80.0957H24.6957V82.5197ZM24.6957 84.9438H22.2717V82.5197H24.6957V84.9438ZM24.6957 87.3678H22.2717V84.9438H24.6957V87.3678ZM24.6957 89.7918H22.2717V87.3678H24.6957V89.7918ZM22.2717 114.032H19.8477V111.608H22.2717V114.032ZM22.2717 111.608H19.8477V109.184H22.2717V111.608ZM22.2717 109.184H19.8477V106.76H22.2717V109.184ZM29.5437 118.88H27.1197V116.456H29.5437V118.88ZM29.5437 114.032H27.1197V111.608H29.5437V114.032ZM29.5437 111.608H27.1197V109.184H29.5437V111.608ZM29.5437 109.184H27.1197V106.76H29.5437V109.184ZM29.5437 106.76H27.1197V104.336H29.5437V106.76ZM29.5437 104.336H27.1197V101.912H29.5437V104.336ZM29.5437 101.912H27.1197V99.4878H29.5437V101.912ZM29.5437 99.4878H27.1197V97.0638H29.5437V99.4878ZM31.9677 97.0638H29.5437V94.6398H31.9677V97.0638ZM31.9677 94.6398H29.5437V92.2158H31.9677V94.6398ZM31.9677 92.2158H29.5437V89.7918H31.9677V92.2158ZM31.9677 99.4878H29.5437V97.0638H31.9677V99.4878ZM31.9677 101.912H29.5437V99.4878H31.9677V101.912ZM31.9677 104.336H29.5437V101.912H31.9677V104.336ZM31.9677 106.76H29.5437V104.336H31.9677V106.76ZM31.9677 109.184H29.5437V106.76H31.9677V109.184ZM31.9677 111.608H29.5437V109.184H31.9677V111.608ZM31.9677 114.032H29.5437V111.608H31.9677V114.032ZM31.9677 116.456H29.5437V114.032H31.9677V116.456ZM31.9677 118.88H29.5437V116.456H31.9677V118.88ZM31.9677 121.304H29.5437V118.88H31.9677V121.304ZM29.5437 116.456H27.1197V114.032H29.5437V116.456ZM31.9677 123.728H29.5437V121.304H31.9677V123.728ZM31.9677 126.152H29.5437V123.728H31.9677V126.152ZM27.1197 118.88H24.6957V116.456H27.1197V118.88ZM27.1197 116.456H24.6957V114.032H27.1197V116.456ZM27.1197 114.032H24.6957V111.608H27.1197V114.032ZM24.6957 111.608H22.2717V109.184H24.6957V111.608ZM24.6957 109.184H22.2717V106.76H24.6957V109.184ZM24.6957 114.032H22.2717V111.608H24.6957V114.032ZM24.6957 116.456H22.2717V114.032H24.6957V116.456ZM27.1197 111.608H24.6957V109.184H27.1197V111.608ZM27.1197 109.184H24.6957V106.76H27.1197V109.184ZM27.1197 106.76H24.6957V104.336H27.1197V106.76ZM27.1197 104.336H24.6957V101.912H27.1197V104.336ZM27.1197 101.912H24.6957V99.4878H27.1197V101.912ZM27.1197 99.4878H24.6957V97.0638H27.1197V99.4878ZM27.1197 97.0638H24.6957V94.6398H27.1197V97.0638ZM27.1197 94.6398H24.6957V92.2158H27.1197V94.6398ZM27.1197 92.2158H24.6957V89.7918H27.1197V92.2158ZM29.5437 94.6398H27.1197V92.2158H29.5437V94.6398ZM29.5437 97.0638H27.1197V94.6398H29.5437V97.0638ZM48.9358 72.8237H46.5118V70.3997H48.9358V72.8237ZM48.9358 75.2477H46.5118V72.8237H48.9358V75.2477ZM48.9358 77.6717H46.5118V75.2477H48.9358V77.6717ZM48.9358 80.0957H46.5118V77.6717H48.9358V80.0957ZM48.9358 82.5197H46.5118V80.0957H48.9358V82.5197ZM48.9358 84.9438H46.5118V82.5197H48.9358V84.9438ZM48.9358 87.3678H46.5118V84.9438H48.9358V87.3678ZM48.9358 89.7918H46.5118V87.3678H48.9358V89.7918ZM48.9358 92.2158H46.5118V89.7918H48.9358V92.2158ZM48.9358 94.6398H46.5118V92.2158H48.9358V94.6398ZM48.9358 97.0638H46.5118V94.6398H48.9358V97.0638ZM48.9358 99.4878H46.5118V97.0638H48.9358V99.4878ZM48.9358 101.912H46.5118V99.4878H48.9358V101.912ZM48.9358 104.336H46.5118V101.912H48.9358V104.336ZM48.9358 106.76H46.5118V104.336H48.9358V106.76ZM51.3598 106.76H48.9358V104.336H51.3598V106.76ZM51.3598 104.336H48.9358V101.912H51.3598V104.336ZM51.3598 101.912H48.9358V99.4878H51.3598V101.912ZM51.3598 99.4878H48.9358V97.0638H51.3598V99.4878ZM51.3598 97.0638H48.9358V94.6398H51.3598V97.0638ZM51.3598 94.6398H48.9358V92.2158H51.3598V94.6398ZM51.3598 92.2158H48.9358V89.7918H51.3598V92.2158ZM53.7839 89.7918H51.3598V87.3678H53.7839V89.7918ZM53.7839 87.3678H51.3598V84.9438H53.7839V87.3678ZM53.7839 84.9438H51.3598V82.5197H53.7839V84.9438ZM53.7839 82.5197H51.3598V80.0957H53.7839V82.5197ZM53.7839 80.0957H51.3598V77.6717H53.7839V80.0957ZM53.7839 77.6717H51.3598V75.2477H53.7839V77.6717ZM53.7839 75.2477H51.3598V72.8237H53.7839V75.2477ZM53.7839 72.8237H51.3598V70.3997H53.7839V72.8237ZM56.2079 72.8237H53.7839V70.3997H56.2079V72.8237ZM58.6319 72.8237H56.2079V70.3997H58.6319V72.8237ZM58.6319 75.2477H56.2079V72.8237H58.6319V75.2477ZM58.6319 77.6717H56.2079V75.2477H58.6319V77.6717ZM58.6319 80.0957H56.2079V77.6717H58.6319V80.0957ZM58.6319 82.5197H56.2079V80.0957H58.6319V82.5197ZM58.6319 84.9438H56.2079V82.5197H58.6319V84.9438ZM58.6319 87.3678H56.2079V84.9438H58.6319V87.3678ZM58.6319 89.7918H56.2079V87.3678H58.6319V89.7918ZM56.2079 89.7918H53.7839V87.3678H56.2079V89.7918ZM56.2079 92.2158H53.7839V89.7918H56.2079V92.2158ZM56.2079 87.3678H53.7839V84.9438H56.2079V87.3678ZM56.2079 84.9438H53.7839V82.5197H56.2079V84.9438ZM56.2079 82.5197H53.7839V80.0957H56.2079V82.5197ZM56.2079 80.0957H53.7839V77.6717H56.2079V80.0957ZM56.2079 77.6717H53.7839V75.2477H56.2079V77.6717ZM56.2079 75.2477H53.7839V72.8237H56.2079V75.2477ZM51.3598 72.8237H48.9358V70.3997H51.3598V72.8237ZM51.3598 75.2477H48.9358V72.8237H51.3598V75.2477ZM51.3598 77.6717H48.9358V75.2477H51.3598V77.6717ZM51.3598 80.0957H48.9358V77.6717H51.3598V80.0957ZM51.3598 82.5197H48.9358V80.0957H51.3598V82.5197ZM51.3598 84.9438H48.9358V82.5197H51.3598V84.9438ZM51.3598 87.3678H48.9358V84.9438H51.3598V87.3678ZM51.3598 89.7918H48.9358V87.3678H51.3598V89.7918ZM48.9358 126.152H46.5118V123.728H48.9358V126.152ZM48.9358 123.728H46.5118V121.304H48.9358V123.728ZM48.9358 121.304H46.5118V118.88H48.9358V121.304ZM48.9358 118.88H46.5118V116.456H48.9358V118.88ZM48.9358 116.456H46.5118V114.032H48.9358V116.456ZM48.9358 114.032H46.5118V111.608H48.9358V114.032ZM48.9358 111.608H46.5118V109.184H48.9358V111.608ZM48.9358 109.184H46.5118V106.76H48.9358V109.184ZM56.2079 118.88H53.7839V116.456H56.2079V118.88ZM56.2079 114.032H53.7839V111.608H56.2079V114.032ZM56.2079 111.608H53.7839V109.184H56.2079V111.608ZM56.2079 109.184H53.7839V106.76H56.2079V109.184ZM56.2079 106.76H53.7839V104.336H56.2079V106.76ZM56.2079 104.336H53.7839V101.912H56.2079V104.336ZM56.2079 101.912H53.7839V99.4878H56.2079V101.912ZM56.2079 99.4878H53.7839V97.0638H56.2079V99.4878ZM58.6319 97.0638H56.2079V94.6398H58.6319V97.0638ZM58.6319 94.6398H56.2079V92.2158H58.6319V94.6398ZM58.6319 92.2158H56.2079V89.7918H58.6319V92.2158ZM58.6319 99.4878H56.2079V97.0638H58.6319V99.4878ZM58.6319 101.912H56.2079V99.4878H58.6319V101.912ZM58.6319 104.336H56.2079V101.912H58.6319V104.336ZM58.6319 106.76H56.2079V104.336H58.6319V106.76ZM58.6319 109.184H56.2079V106.76H58.6319V109.184ZM58.6319 111.608H56.2079V109.184H58.6319V111.608ZM58.6319 114.032H56.2079V111.608H58.6319V114.032ZM58.6319 116.456H56.2079V114.032H58.6319V116.456ZM56.2079 116.456H53.7839V114.032H56.2079V116.456ZM53.7839 121.304H51.3598V118.88H53.7839V121.304ZM53.7839 118.88H51.3598V116.456H53.7839V118.88ZM53.7839 116.456H51.3598V114.032H53.7839V116.456ZM53.7839 114.032H51.3598V111.608H53.7839V114.032ZM51.3598 111.608H48.9358V109.184H51.3598V111.608ZM51.3598 109.184H48.9358V106.76H51.3598V109.184ZM51.3598 114.032H48.9358V111.608H51.3598V114.032ZM51.3598 116.456H48.9358V114.032H51.3598V116.456ZM51.3598 118.88H48.9358V116.456H51.3598V118.88ZM51.3598 121.304H48.9358V118.88H51.3598V121.304ZM51.3598 123.728H48.9358V121.304H51.3598V123.728ZM53.7839 111.608H51.3598V109.184H53.7839V111.608ZM53.7839 109.184H51.3598V106.76H53.7839V109.184ZM53.7839 106.76H51.3598V104.336H53.7839V106.76ZM53.7839 104.336H51.3598V101.912H53.7839V104.336ZM53.7839 101.912H51.3598V99.4878H53.7839V101.912ZM53.7839 99.4878H51.3598V97.0638H53.7839V99.4878ZM53.7839 97.0638H51.3598V94.6398H53.7839V97.0638ZM53.7839 94.6398H51.3598V92.2158H53.7839V94.6398ZM53.7839 92.2158H51.3598V89.7918H53.7839V92.2158ZM56.2079 94.6398H53.7839V92.2158H56.2079V94.6398ZM56.2079 97.0638H53.7839V94.6398H56.2079V97.0638ZM36.8158 131H34.3917V128.576H36.8158V131ZM39.2398 131H36.8158V128.576H39.2398V131ZM41.6638 131H39.2398V128.576H41.6638V131ZM44.0878 131H41.6638V128.576H44.0878V131ZM46.5118 128.576H44.0878V126.152H46.5118V128.576ZM44.0878 128.576H41.6638V126.152H44.0878V128.576ZM41.6638 128.576H39.2398V126.152H41.6638V128.576ZM39.2398 128.576H36.8158V126.152H39.2398V128.576ZM36.8158 128.576H34.3917V126.152H36.8158V128.576ZM34.3917 128.576H31.9677V126.152H34.3917V128.576ZM34.3917 126.152H31.9677V123.728H34.3917V126.152ZM34.3917 123.728H31.9677V121.304H34.3917V123.728ZM36.8158 126.152H34.3917V123.728H36.8158V126.152ZM39.2398 126.152H36.8158V123.728H39.2398V126.152ZM41.6638 126.152H39.2398V123.728H41.6638V126.152ZM44.0878 126.152H41.6638V123.728H44.0878V126.152ZM46.5118 126.152H44.0878V123.728H46.5118V126.152ZM46.5118 123.728H44.0878V121.304H46.5118V123.728ZM44.0878 123.728H41.6638V121.304H44.0878V123.728ZM41.6638 123.728H39.2398V121.304H41.6638V123.728ZM39.2398 123.728H36.8158V121.304H39.2398V123.728ZM36.8158 123.728H34.3917V121.304H36.8158V123.728ZM34.3917 121.304H31.9677V118.88H34.3917V121.304ZM36.8158 121.304H34.3917V118.88H36.8158V121.304ZM46.5118 121.304H44.0878V118.88H46.5118V121.304ZM44.0878 121.304H41.6638V118.88H44.0878V121.304ZM46.5118 118.88H44.0878V116.456H46.5118V118.88ZM34.3917 118.88H31.9677V116.456H34.3917V118.88ZM29.5437 123.728H27.1197V121.304H29.5437V123.728ZM29.5437 121.304H27.1197V118.88H29.5437V121.304ZM27.1197 121.304H24.6957V118.88H27.1197V121.304ZM24.6957 118.88H22.2717V116.456H24.6957V118.88ZM22.2717 116.456H19.8477V114.032H22.2717V116.456ZM34.3917 116.456H31.9677V114.032H34.3917V116.456ZM36.8158 118.88H34.3917V116.456H36.8158V118.88ZM39.2398 121.304H36.8158V118.88H39.2398V121.304ZM41.6638 121.304H39.2398V118.88H41.6638V121.304ZM44.0878 118.88H41.6638V116.456H44.0878V118.88ZM46.5118 116.456H44.0878V114.032H46.5118V116.456ZM39.2398 118.88H36.8158V116.456H39.2398V118.88ZM41.6638 118.88H39.2398V116.456H41.6638V118.88ZM36.8158 116.456H34.3917V114.032H36.8158V116.456ZM34.3917 114.032H31.9677V111.608H34.3917V114.032ZM44.0878 116.456H41.6638V114.032H44.0878V116.456ZM46.5118 114.032H44.0878V111.608H46.5118V114.032Z" fill="black"/>
<path d="M155.71 131H153.286V97.0635H155.71V131ZM158.134 131H155.71V99.4883H158.134V131ZM160.558 131H158.134V99.4883H160.558V131ZM162.981 131H160.558V99.4883H162.981V131ZM165.406 131H162.981V97.0635H165.406V131ZM163.981 130H164.406V129.576H163.981V130ZM161.558 130H161.981V129.576H161.558V130ZM159.134 130H159.558V129.576H159.134V130ZM156.71 130H157.134V129.576H156.71V130ZM154.286 130H154.71V129.576H154.286V130ZM163.981 127.576H164.406V127.152H163.981V127.576ZM161.558 127.576H161.981V127.152H161.558V127.576ZM159.134 127.576H159.558V127.152H159.134V127.576ZM156.71 127.576H157.134V127.152H156.71V127.576ZM154.286 127.576H154.71V127.152H154.286V127.576ZM163.981 125.152H164.406V124.728H163.981V125.152ZM161.558 125.152H161.981V124.728H161.558V125.152ZM159.134 125.152H159.558V124.728H159.134V125.152ZM156.71 125.152H157.134V124.728H156.71V125.152ZM154.286 125.152H154.71V124.728H154.286V125.152ZM163.981 122.728H164.406V122.304H163.981V122.728ZM161.558 122.728H161.981V122.304H161.558V122.728ZM159.134 122.728H159.558V122.304H159.134V122.728ZM156.71 122.728H157.134V122.304H156.71V122.728ZM154.286 122.728H154.71V122.304H154.286V122.728ZM163.981 120.304H164.406V119.88H163.981V120.304ZM161.558 120.304H161.981V119.88H161.558V120.304ZM159.134 120.304H159.558V119.88H159.134V120.304ZM156.71 120.304H157.134V119.88H156.71V120.304ZM154.286 120.304H154.71V119.88H154.286V120.304ZM163.981 117.88H164.406V117.456H163.981V117.88ZM161.558 117.88H161.981V117.456H161.558V117.88ZM159.134 117.88H159.558V117.456H159.134V117.88ZM156.71 117.88H157.134V117.456H156.71V117.88ZM154.286 117.88H154.71V117.456H154.286V117.88ZM163.981 115.456H164.406V115.032H163.981V115.456ZM161.558 115.456H161.981V115.032H161.558V115.456ZM159.134 115.456H159.558V115.032H159.134V115.456ZM156.71 115.456H157.134V115.032H156.71V115.456ZM154.286 115.456H154.71V115.032H154.286V115.456ZM163.981 113.032H164.406V112.607H163.981V113.032ZM161.558 113.032H161.981V112.607H161.558V113.032ZM159.134 113.032H159.558V112.607H159.134V113.032ZM156.71 113.032H157.134V112.607H156.71V113.032ZM154.286 113.032H154.71V112.607H154.286V113.032ZM153.286 111.607H150.861V94.6396H153.286V111.607ZM167.83 111.607H165.406V94.6396H167.83V111.607ZM166.406 110.607H166.83V110.184H166.406V110.607ZM163.981 110.607H164.406V110.184H163.981V110.607ZM161.558 110.607H161.981V110.184H161.558V110.607ZM159.134 110.607H159.558V110.184H159.134V110.607ZM156.71 110.607H157.134V110.184H156.71V110.607ZM154.286 110.607H154.71V110.184H154.286V110.607ZM151.861 110.607H152.286V110.184H151.861V110.607ZM150.861 109.184H148.438V70.3994H150.861V109.184ZM170.254 109.184H167.83V70.3994H170.254V109.184ZM168.83 108.184H169.254V107.76H168.83V108.184ZM166.406 108.184H166.83V107.76H166.406V108.184ZM163.981 108.184H164.406V107.76H163.981V108.184ZM161.558 108.184H161.981V107.76H161.558V108.184ZM159.134 108.184H159.558V107.76H159.134V108.184ZM156.71 108.184H157.134V107.76H156.71V108.184ZM154.286 108.184H154.71V107.76H154.286V108.184ZM151.861 108.184H152.286V107.76H151.861V108.184ZM149.438 108.184H149.861V107.76H149.438V108.184ZM148.438 106.76H146.014V70.3994H148.438V106.76ZM172.678 106.76H170.254V70.3994H172.678V106.76ZM171.254 105.76H171.678V105.336H171.254V105.76ZM168.83 105.76H169.254V105.336H168.83V105.76ZM166.406 105.76H166.83V105.336H166.406V105.76ZM163.981 105.76H164.406V105.336H163.981V105.76ZM161.558 105.76H161.981V105.336H161.558V105.76ZM159.134 105.76H159.558V105.336H159.134V105.76ZM156.71 105.76H157.134V105.336H156.71V105.76ZM154.286 105.76H154.71V105.336H154.286V105.76ZM151.861 105.76H152.286V105.336H151.861V105.76ZM149.438 105.76H149.861V105.336H149.438V105.76ZM147.014 105.76H147.438V105.336H147.014V105.76ZM146.014 104.336H143.59V70.3994H146.014V104.336ZM175.102 104.336H172.678V70.3994H175.102V104.336ZM173.678 103.336H174.102V102.912H173.678V103.336ZM171.254 103.336H171.678V102.912H171.254V103.336ZM168.83 103.336H169.254V102.912H168.83V103.336ZM166.406 103.336H166.83V102.912H166.406V103.336ZM163.981 103.336H164.406V102.912H163.981V103.336ZM161.558 103.336H161.981V102.912H161.558V103.336ZM159.134 103.336H159.558V102.912H159.134V103.336ZM156.71 103.336H157.134V102.912H156.71V103.336ZM154.286 103.336H154.71V102.912H154.286V103.336ZM151.861 103.336H152.286V102.912H151.861V103.336ZM149.438 103.336H149.861V102.912H149.438V103.336ZM147.014 103.336H147.438V102.912H147.014V103.336ZM144.59 103.336H145.014V102.912H144.59V103.336ZM143.59 101.912H141.166V70.3994H143.59V101.912ZM177.526 101.912H175.102V70.3994H177.526V101.912ZM176.102 100.912H176.526V100.488H176.102V100.912ZM173.678 100.912H174.102V100.488H173.678V100.912ZM171.254 100.912H171.678V100.488H171.254V100.912ZM168.83 100.912H169.254V100.488H168.83V100.912ZM166.406 100.912H166.83V100.488H166.406V100.912ZM163.981 100.912H164.406V100.488H163.981V100.912ZM161.558 100.912H161.981V100.488H161.558V100.912ZM159.134 100.912H159.558V100.488H159.134V100.912ZM156.71 100.912H157.134V100.488H156.71V100.912ZM154.286 100.912H154.71V100.488H154.286V100.912ZM151.861 100.912H152.286V100.488H151.861V100.912ZM149.438 100.912H149.861V100.488H149.438V100.912ZM147.014 100.912H147.438V100.488H147.014V100.912ZM144.59 100.912H145.014V100.488H144.59V100.912ZM142.166 100.912H142.59V100.488H142.166V100.912ZM141.166 99.4883H138.742V70.3994H141.166V99.4883ZM179.95 99.4883H177.526V70.3994H179.95V99.4883ZM178.526 98.4883H178.95V98.0635H178.526V98.4883ZM176.102 98.4883H176.526V98.0635H176.102V98.4883ZM173.678 98.4883H174.102V98.0635H173.678V98.4883ZM171.254 98.4883H171.678V98.0635H171.254V98.4883ZM168.83 98.4883H169.254V98.0635H168.83V98.4883ZM166.406 98.4883H166.83V98.0635H166.406V98.4883ZM163.981 98.4883H164.406V98.0635H163.981V98.4883ZM154.286 98.4883H154.71V98.0635H154.286V98.4883ZM151.861 98.4883H152.286V98.0635H151.861V98.4883ZM149.438 98.4883H149.861V98.0635H149.438V98.4883ZM147.014 98.4883H147.438V98.0635H147.014V98.4883ZM144.59 98.4883H145.014V98.0635H144.59V98.4883ZM142.166 98.4883H142.59V98.0635H142.166V98.4883ZM139.742 98.4883H140.166V98.0635H139.742V98.4883ZM178.526 96.0635H178.95V95.6396H178.526V96.0635ZM176.102 96.0635H176.526V95.6396H176.102V96.0635ZM173.678 96.0635H174.102V95.6396H173.678V96.0635ZM171.254 96.0635H171.678V95.6396H171.254V96.0635ZM168.83 96.0635H169.254V95.6396H168.83V96.0635ZM166.406 96.0635H166.83V95.6396H166.406V96.0635ZM151.861 96.0635H152.286V95.6396H151.861V96.0635ZM149.438 96.0635H149.861V95.6396H149.438V96.0635ZM147.014 96.0635H147.438V95.6396H147.014V96.0635ZM144.59 96.0635H145.014V95.6396H144.59V96.0635ZM142.166 96.0635H142.59V95.6396H142.166V96.0635ZM139.742 96.0635H140.166V95.6396H139.742V96.0635ZM178.526 93.6396H178.95V93.2158H178.526V93.6396ZM176.102 93.6396H176.526V93.2158H176.102V93.6396ZM173.678 93.6396H174.102V93.2158H173.678V93.6396ZM171.254 93.6396H171.678V93.2158H171.254V93.6396ZM168.83 93.6396H169.254V93.2158H168.83V93.6396ZM149.438 93.6396H149.861V93.2158H149.438V93.6396ZM147.014 93.6396H147.438V93.2158H147.014V93.6396ZM144.59 93.6396H145.014V93.2158H144.59V93.6396ZM142.166 93.6396H142.59V93.2158H142.166V93.6396ZM139.742 93.6396H140.166V93.2158H139.742V93.6396ZM178.526 91.2158H178.95V90.792H178.526V91.2158ZM176.102 91.2158H176.526V90.792H176.102V91.2158ZM173.678 91.2158H174.102V90.792H173.678V91.2158ZM171.254 91.2158H171.678V90.792H171.254V91.2158ZM168.83 91.2158H169.254V90.792H168.83V91.2158ZM149.438 91.2158H149.861V90.792H149.438V91.2158ZM147.014 91.2158H147.438V90.792H147.014V91.2158ZM144.59 91.2158H145.014V90.792H144.59V91.2158ZM142.166 91.2158H142.59V90.792H142.166V91.2158ZM139.742 91.2158H140.166V90.792H139.742V91.2158ZM178.526 88.792H178.95V88.3682H178.526V88.792ZM176.102 88.792H176.526V88.3682H176.102V88.792ZM173.678 88.792H174.102V88.3682H173.678V88.792ZM171.254 88.792H171.678V88.3682H171.254V88.792ZM168.83 88.792H169.254V88.3682H168.83V88.792ZM149.438 88.792H149.861V88.3682H149.438V88.792ZM147.014 88.792H147.438V88.3682H147.014V88.792ZM144.59 88.792H145.014V88.3682H144.59V88.792ZM142.166 88.792H142.59V88.3682H142.166V88.792ZM139.742 88.792H140.166V88.3682H139.742V88.792ZM178.526 86.3682H178.95V85.9434H178.526V86.3682ZM176.102 86.3682H176.526V85.9434H176.102V86.3682ZM173.678 86.3682H174.102V85.9434H173.678V86.3682ZM171.254 86.3682H171.678V85.9434H171.254V86.3682ZM168.83 86.3682H169.254V85.9434H168.83V86.3682ZM149.438 86.3682H149.861V85.9434H149.438V86.3682ZM147.014 86.3682H147.438V85.9434H147.014V86.3682ZM144.59 86.3682H145.014V85.9434H144.59V86.3682ZM142.166 86.3682H142.59V85.9434H142.166V86.3682ZM139.742 86.3682H140.166V85.9434H139.742V86.3682ZM178.526 83.9434H178.95V83.5195H178.526V83.9434ZM176.102 83.9434H176.526V83.5195H176.102V83.9434ZM173.678 83.9434H174.102V83.5195H173.678V83.9434ZM171.254 83.9434H171.678V83.5195H171.254V83.9434ZM168.83 83.9434H169.254V83.5195H168.83V83.9434ZM149.438 83.9434H149.861V83.5195H149.438V83.9434ZM147.014 83.9434H147.438V83.5195H147.014V83.9434ZM144.59 83.9434H145.014V83.5195H144.59V83.9434ZM142.166 83.9434H142.59V83.5195H142.166V83.9434ZM139.742 83.9434H140.166V83.5195H139.742V83.9434ZM178.526 81.5195H178.95V81.0957H178.526V81.5195ZM176.102 81.5195H176.526V81.0957H176.102V81.5195ZM173.678 81.5195H174.102V81.0957H173.678V81.5195ZM171.254 81.5195H171.678V81.0957H171.254V81.5195ZM168.83 81.5195H169.254V81.0957H168.83V81.5195ZM149.438 81.5195H149.861V81.0957H149.438V81.5195ZM147.014 81.5195H147.438V81.0957H147.014V81.5195ZM144.59 81.5195H145.014V81.0957H144.59V81.5195ZM142.166 81.5195H142.59V81.0957H142.166V81.5195ZM139.742 81.5195H140.166V81.0957H139.742V81.5195ZM178.526 79.0957H178.95V78.6719H178.526V79.0957ZM176.102 79.0957H176.526V78.6719H176.102V79.0957ZM173.678 79.0957H174.102V78.6719H173.678V79.0957ZM171.254 79.0957H171.678V78.6719H171.254V79.0957ZM168.83 79.0957H169.254V78.6719H168.83V79.0957ZM149.438 79.0957H149.861V78.6719H149.438V79.0957ZM147.014 79.0957H147.438V78.6719H147.014V79.0957ZM144.59 79.0957H145.014V78.6719H144.59V79.0957ZM142.166 79.0957H142.59V78.6719H142.166V79.0957ZM139.742 79.0957H140.166V78.6719H139.742V79.0957ZM178.526 76.6719H178.95V76.248H178.526V76.6719ZM176.102 76.6719H176.526V76.248H176.102V76.6719ZM173.678 76.6719H174.102V76.248H173.678V76.6719ZM171.254 76.6719H171.678V76.248H171.254V76.6719ZM168.83 76.6719H169.254V76.248H168.83V76.6719ZM149.438 76.6719H149.861V76.248H149.438V76.6719ZM147.014 76.6719H147.438V76.248H147.014V76.6719ZM144.59 76.6719H145.014V76.248H144.59V76.6719ZM142.166 76.6719H142.59V76.248H142.166V76.6719ZM139.742 76.6719H140.166V76.248H139.742V76.6719ZM178.526 74.248H178.95V73.8232H178.526V74.248ZM176.102 74.248H176.526V73.8232H176.102V74.248ZM173.678 74.248H174.102V73.8232H173.678V74.248ZM171.254 74.248H171.678V73.8232H171.254V74.248ZM168.83 74.248H169.254V73.8232H168.83V74.248ZM149.438 74.248H149.861V73.8232H149.438V74.248ZM147.014 74.248H147.438V73.8232H147.014V74.248ZM144.59 74.248H145.014V73.8232H144.59V74.248ZM142.166 74.248H142.59V73.8232H142.166V74.248ZM139.742 74.248H140.166V73.8232H139.742V74.248ZM178.526 71.8232H178.95V71.3994H178.526V71.8232ZM176.102 71.8232H176.526V71.3994H176.102V71.8232ZM173.678 71.8232H174.102V71.3994H173.678V71.8232ZM171.254 71.8232H171.678V71.3994H171.254V71.8232ZM168.83 71.8232H169.254V71.3994H168.83V71.8232ZM149.438 71.8232H149.861V71.3994H149.438V71.8232ZM147.014 71.8232H147.438V71.3994H147.014V71.8232ZM144.59 71.8232H145.014V71.3994H144.59V71.8232ZM142.166 71.8232H142.59V71.3994H142.166V71.8232ZM139.742 71.8232H140.166V71.3994H139.742V71.8232Z" fill="#414141"/>
<path d="M92.6367 131H90.2129V70.3994H92.6367V131ZM95.0615 131H92.6367V70.3994H95.0615V131ZM97.4854 131H95.0615V70.3994H97.4854V131ZM99.9092 131H97.4854V70.3994H99.9092V131ZM102.333 131H99.9092V70.3994H102.333V131ZM104.757 131H102.333V118.88H104.757V131ZM107.182 131H104.757V118.88H107.182V131ZM109.605 131H107.182V118.88H109.605V131ZM112.029 131H109.605V118.88H112.029V131ZM114.453 131H112.029V118.88H114.453V131ZM116.877 131H114.453V116.456H116.877V131ZM119.302 131H116.877V70.3994H119.302V131ZM117.877 130H118.302V129.576H117.877V130ZM115.453 130H115.877V129.576H115.453V130ZM113.029 130H113.453V129.576H113.029V130ZM110.605 130H111.029V129.576H110.605V130ZM108.182 130H108.605V129.576H108.182V130ZM105.757 130H106.182V129.576H105.757V130ZM103.333 130H103.757V129.576H103.333V130ZM100.909 130H101.333V129.576H100.909V130ZM98.4854 130H98.9092V129.576H98.4854V130ZM96.0615 130H96.4854V129.576H96.0615V130ZM93.6367 130H94.0615V129.576H93.6367V130ZM91.2129 130H91.6367V129.576H91.2129V130ZM121.726 128.576H119.302V72.8232H121.726V128.576ZM124.149 128.576H121.726V72.8232H124.149V128.576ZM122.726 127.576H123.149V127.152H122.726V127.576ZM120.302 127.576H120.726V127.152H120.302V127.576ZM117.877 127.576H118.302V127.152H117.877V127.576ZM115.453 127.576H115.877V127.152H115.453V127.576ZM113.029 127.576H113.453V127.152H113.029V127.576ZM110.605 127.576H111.029V127.152H110.605V127.576ZM108.182 127.576H108.605V127.152H108.182V127.576ZM105.757 127.576H106.182V127.152H105.757V127.576ZM103.333 127.576H103.757V127.152H103.333V127.576ZM100.909 127.576H101.333V127.152H100.909V127.576ZM98.4854 127.576H98.9092V127.152H98.4854V127.576ZM96.0615 127.576H96.4854V127.152H96.0615V127.576ZM93.6367 127.576H94.0615V127.152H93.6367V127.576ZM91.2129 127.576H91.6367V127.152H91.2129V127.576ZM126.573 126.152H124.149V75.248H126.573V126.152ZM125.149 125.152H125.573V124.728H125.149V125.152ZM122.726 125.152H123.149V124.728H122.726V125.152ZM120.302 125.152H120.726V124.728H120.302V125.152ZM117.877 125.152H118.302V124.728H117.877V125.152ZM115.453 125.152H115.877V124.728H115.453V125.152ZM113.029 125.152H113.453V124.728H113.029V125.152ZM110.605 125.152H111.029V124.728H110.605V125.152ZM108.182 125.152H108.605V124.728H108.182V125.152ZM105.757 125.152H106.182V124.728H105.757V125.152ZM103.333 125.152H103.757V124.728H103.333V125.152ZM100.909 125.152H101.333V124.728H100.909V125.152ZM98.4854 125.152H98.9092V124.728H98.4854V125.152ZM96.0615 125.152H96.4854V124.728H96.0615V125.152ZM93.6367 125.152H94.0615V124.728H93.6367V125.152ZM91.2129 125.152H91.6367V124.728H91.2129V125.152ZM125.149 122.728H125.573V122.304H125.149V122.728ZM122.726 122.728H123.149V122.304H122.726V122.728ZM120.302 122.728H120.726V122.304H120.302V122.728ZM117.877 122.728H118.302V122.304H117.877V122.728ZM115.453 122.728H115.877V122.304H115.453V122.728ZM113.029 122.728H113.453V122.304H113.029V122.728ZM110.605 122.728H111.029V122.304H110.605V122.728ZM108.182 122.728H108.605V122.304H108.182V122.728ZM105.757 122.728H106.182V122.304H105.757V122.728ZM103.333 122.728H103.757V122.304H103.333V122.728ZM100.909 122.728H101.333V122.304H100.909V122.728ZM98.4854 122.728H98.9092V122.304H98.4854V122.728ZM96.0615 122.728H96.4854V122.304H96.0615V122.728ZM93.6367 122.728H94.0615V122.304H93.6367V122.728ZM91.2129 122.728H91.6367V122.304H91.2129V122.728ZM128.997 121.304H126.573V80.0957H128.997V121.304ZM127.573 120.304H127.997V119.88H127.573V120.304ZM125.149 120.304H125.573V119.88H125.149V120.304ZM122.726 120.304H123.149V119.88H122.726V120.304ZM120.302 120.304H120.726V119.88H120.302V120.304ZM117.877 120.304H118.302V119.88H117.877V120.304ZM115.453 120.304H115.877V119.88H115.453V120.304ZM113.029 120.304H113.453V119.88H113.029V120.304ZM110.605 120.304H111.029V119.88H110.605V120.304ZM108.182 120.304H108.605V119.88H108.182V120.304ZM105.757 120.304H106.182V119.88H105.757V120.304ZM103.333 120.304H103.757V119.88H103.333V120.304ZM100.909 120.304H101.333V119.88H100.909V120.304ZM98.4854 120.304H98.9092V119.88H98.4854V120.304ZM96.0615 120.304H96.4854V119.88H96.0615V120.304ZM93.6367 120.304H94.0615V119.88H93.6367V120.304ZM91.2129 120.304H91.6367V119.88H91.2129V120.304ZM127.573 117.88H127.997V117.456H127.573V117.88ZM125.149 117.88H125.573V117.456H125.149V117.88ZM122.726 117.88H123.149V117.456H122.726V117.88ZM120.302 117.88H120.726V117.456H120.302V117.88ZM117.877 117.88H118.302V117.456H117.877V117.88ZM115.453 117.88H115.877V117.456H115.453V117.88ZM100.909 117.88H101.333V117.456H100.909V117.88ZM98.4854 117.88H98.9092V117.456H98.4854V117.88ZM96.0615 117.88H96.4854V117.456H96.0615V117.88ZM93.6367 117.88H94.0615V117.456H93.6367V117.88ZM91.2129 117.88H91.6367V117.456H91.2129V117.88ZM127.573 115.456H127.997V115.032H127.573V115.456ZM125.149 115.456H125.573V115.032H125.149V115.456ZM122.726 115.456H123.149V115.032H122.726V115.456ZM120.302 115.456H120.726V115.032H120.302V115.456ZM117.877 115.456H118.302V115.032H117.877V115.456ZM100.909 115.456H101.333V115.032H100.909V115.456ZM98.4854 115.456H98.9092V115.032H98.4854V115.456ZM96.0615 115.456H96.4854V115.032H96.0615V115.456ZM93.6367 115.456H94.0615V115.032H93.6367V115.456ZM91.2129 115.456H91.6367V115.032H91.2129V115.456ZM127.573 113.032H127.997V112.607H127.573V113.032ZM125.149 113.032H125.573V112.607H125.149V113.032ZM122.726 113.032H123.149V112.607H122.726V113.032ZM120.302 113.032H120.726V112.607H120.302V113.032ZM117.877 113.032H118.302V112.607H117.877V113.032ZM100.909 113.032H101.333V112.607H100.909V113.032ZM98.4854 113.032H98.9092V112.607H98.4854V113.032ZM96.0615 113.032H96.4854V112.607H96.0615V113.032ZM93.6367 113.032H94.0615V112.607H93.6367V113.032ZM91.2129 113.032H91.6367V112.607H91.2129V113.032ZM127.573 110.607H127.997V110.184H127.573V110.607ZM125.149 110.607H125.573V110.184H125.149V110.607ZM122.726 110.607H123.149V110.184H122.726V110.607ZM120.302 110.607H120.726V110.184H120.302V110.607ZM117.877 110.607H118.302V110.184H117.877V110.607ZM100.909 110.607H101.333V110.184H100.909V110.607ZM98.4854 110.607H98.9092V110.184H98.4854V110.607ZM96.0615 110.607H96.4854V110.184H96.0615V110.607ZM93.6367 110.607H94.0615V110.184H93.6367V110.607ZM91.2129 110.607H91.6367V110.184H91.2129V110.607ZM127.573 108.184H127.997V107.76H127.573V108.184ZM125.149 108.184H125.573V107.76H125.149V108.184ZM122.726 108.184H123.149V107.76H122.726V108.184ZM120.302 108.184H120.726V107.76H120.302V108.184ZM117.877 108.184H118.302V107.76H117.877V108.184ZM100.909 108.184H101.333V107.76H100.909V108.184ZM98.4854 108.184H98.9092V107.76H98.4854V108.184ZM96.0615 108.184H96.4854V107.76H96.0615V108.184ZM93.6367 108.184H94.0615V107.76H93.6367V108.184ZM91.2129 108.184H91.6367V107.76H91.2129V108.184ZM127.573 105.76H127.997V105.336H127.573V105.76ZM125.149 105.76H125.573V105.336H125.149V105.76ZM122.726 105.76H123.149V105.336H122.726V105.76ZM120.302 105.76H120.726V105.336H120.302V105.76ZM117.877 105.76H118.302V105.336H117.877V105.76ZM100.909 105.76H101.333V105.336H100.909V105.76ZM98.4854 105.76H98.9092V105.336H98.4854V105.76ZM96.0615 105.76H96.4854V105.336H96.0615V105.76ZM93.6367 105.76H94.0615V105.336H93.6367V105.76ZM91.2129 105.76H91.6367V105.336H91.2129V105.76ZM127.573 103.336H127.997V102.912H127.573V103.336ZM125.149 103.336H125.573V102.912H125.149V103.336ZM122.726 103.336H123.149V102.912H122.726V103.336ZM120.302 103.336H120.726V102.912H120.302V103.336ZM117.877 103.336H118.302V102.912H117.877V103.336ZM100.909 103.336H101.333V102.912H100.909V103.336ZM98.4854 103.336H98.9092V102.912H98.4854V103.336ZM96.0615 103.336H96.4854V102.912H96.0615V103.336ZM93.6367 103.336H94.0615V102.912H93.6367V103.336ZM91.2129 103.336H91.6367V102.912H91.2129V103.336ZM127.573 100.912H127.997V100.488H127.573V100.912ZM125.149 100.912H125.573V100.488H125.149V100.912ZM122.726 100.912H123.149V100.488H122.726V100.912ZM120.302 100.912H120.726V100.488H120.302V100.912ZM117.877 100.912H118.302V100.488H117.877V100.912ZM100.909 100.912H101.333V100.488H100.909V100.912ZM98.4854 100.912H98.9092V100.488H98.4854V100.912ZM96.0615 100.912H96.4854V100.488H96.0615V100.912ZM93.6367 100.912H94.0615V100.488H93.6367V100.912ZM91.2129 100.912H91.6367V100.488H91.2129V100.912ZM127.573 98.4883H127.997V98.0635H127.573V98.4883ZM125.149 98.4883H125.573V98.0635H125.149V98.4883ZM122.726 98.4883H123.149V98.0635H122.726V98.4883ZM120.302 98.4883H120.726V98.0635H120.302V98.4883ZM117.877 98.4883H118.302V98.0635H117.877V98.4883ZM100.909 98.4883H101.333V98.0635H100.909V98.4883ZM98.4854 98.4883H98.9092V98.0635H98.4854V98.4883ZM96.0615 98.4883H96.4854V98.0635H96.0615V98.4883ZM93.6367 98.4883H94.0615V98.0635H93.6367V98.4883ZM91.2129 98.4883H91.6367V98.0635H91.2129V98.4883ZM127.573 96.0635H127.997V95.6396H127.573V96.0635ZM125.149 96.0635H125.573V95.6396H125.149V96.0635ZM122.726 96.0635H123.149V95.6396H122.726V96.0635ZM120.302 96.0635H120.726V95.6396H120.302V96.0635ZM117.877 96.0635H118.302V95.6396H117.877V96.0635ZM100.909 96.0635H101.333V95.6396H100.909V96.0635ZM98.4854 96.0635H98.9092V95.6396H98.4854V96.0635ZM96.0615 96.0635H96.4854V95.6396H96.0615V96.0635ZM93.6367 96.0635H94.0615V95.6396H93.6367V96.0635ZM91.2129 96.0635H91.6367V95.6396H91.2129V96.0635ZM127.573 93.6396H127.997V93.2158H127.573V93.6396ZM125.149 93.6396H125.573V93.2158H125.149V93.6396ZM122.726 93.6396H123.149V93.2158H122.726V93.6396ZM120.302 93.6396H120.726V93.2158H120.302V93.6396ZM117.877 93.6396H118.302V93.2158H117.877V93.6396ZM100.909 93.6396H101.333V93.2158H100.909V93.6396ZM98.4854 93.6396H98.9092V93.2158H98.4854V93.6396ZM96.0615 93.6396H96.4854V93.2158H96.0615V93.6396ZM93.6367 93.6396H94.0615V93.2158H93.6367V93.6396ZM91.2129 93.6396H91.6367V93.2158H91.2129V93.6396ZM127.573 91.2158H127.997V90.792H127.573V91.2158ZM125.149 91.2158H125.573V90.792H125.149V91.2158ZM122.726 91.2158H123.149V90.792H122.726V91.2158ZM120.302 91.2158H120.726V90.792H120.302V91.2158ZM117.877 91.2158H118.302V90.792H117.877V91.2158ZM100.909 91.2158H101.333V90.792H100.909V91.2158ZM98.4854 91.2158H98.9092V90.792H98.4854V91.2158ZM96.0615 91.2158H96.4854V90.792H96.0615V91.2158ZM93.6367 91.2158H94.0615V90.792H93.6367V91.2158ZM91.2129 91.2158H91.6367V90.792H91.2129V91.2158ZM127.573 88.792H127.997V88.3682H127.573V88.792ZM125.149 88.792H125.573V88.3682H125.149V88.792ZM122.726 88.792H123.149V88.3682H122.726V88.792ZM120.302 88.792H120.726V88.3682H120.302V88.792ZM117.877 88.792H118.302V88.3682H117.877V88.792ZM100.909 88.792H101.333V88.3682H100.909V88.792ZM98.4854 88.792H98.9092V88.3682H98.4854V88.792ZM96.0615 88.792H96.4854V88.3682H96.0615V88.792ZM93.6367 88.792H94.0615V88.3682H93.6367V88.792ZM91.2129 88.792H91.6367V88.3682H91.2129V88.792ZM127.573 86.3682H127.997V85.9434H127.573V86.3682ZM125.149 86.3682H125.573V85.9434H125.149V86.3682ZM122.726 86.3682H123.149V85.9434H122.726V86.3682ZM120.302 86.3682H120.726V85.9434H120.302V86.3682ZM117.877 86.3682H118.302V85.9434H117.877V86.3682ZM100.909 86.3682H101.333V85.9434H100.909V86.3682ZM98.4854 86.3682H98.9092V85.9434H98.4854V86.3682ZM96.0615 86.3682H96.4854V85.9434H96.0615V86.3682ZM93.6367 86.3682H94.0615V85.9434H93.6367V86.3682ZM91.2129 86.3682H91.6367V85.9434H91.2129V86.3682ZM116.877 84.9434H114.453V70.3994H116.877V84.9434ZM127.573 83.9434H127.997V83.5195H127.573V83.9434ZM125.149 83.9434H125.573V83.5195H125.149V83.9434ZM122.726 83.9434H123.149V83.5195H122.726V83.9434ZM120.302 83.9434H120.726V83.5195H120.302V83.9434ZM117.877 83.9434H118.302V83.5195H117.877V83.9434ZM115.453 83.9434H115.877V83.5195H115.453V83.9434ZM100.909 83.9434H101.333V83.5195H100.909V83.9434ZM98.4854 83.9434H98.9092V83.5195H98.4854V83.9434ZM96.0615 83.9434H96.4854V83.5195H96.0615V83.9434ZM93.6367 83.9434H94.0615V83.5195H93.6367V83.9434ZM91.2129 83.9434H91.6367V83.5195H91.2129V83.9434ZM104.757 82.5195H102.333V70.3994H104.757V82.5195ZM107.182 82.5195H104.757V70.3994H107.182V82.5195ZM109.605 82.5195H107.182V70.3994H109.605V82.5195ZM112.029 82.5195H109.605V70.3994H112.029V82.5195ZM114.453 82.5195H112.029V70.3994H114.453V82.5195ZM127.573 81.5195H127.997V81.0957H127.573V81.5195ZM125.149 81.5195H125.573V81.0957H125.149V81.5195ZM122.726 81.5195H123.149V81.0957H122.726V81.5195ZM120.302 81.5195H120.726V81.0957H120.302V81.5195ZM117.877 81.5195H118.302V81.0957H117.877V81.5195ZM115.453 81.5195H115.877V81.0957H115.453V81.5195ZM113.029 81.5195H113.453V81.0957H113.029V81.5195ZM110.605 81.5195H111.029V81.0957H110.605V81.5195ZM108.182 81.5195H108.605V81.0957H108.182V81.5195ZM105.757 81.5195H106.182V81.0957H105.757V81.5195ZM103.333 81.5195H103.757V81.0957H103.333V81.5195ZM100.909 81.5195H101.333V81.0957H100.909V81.5195ZM98.4854 81.5195H98.9092V81.0957H98.4854V81.5195ZM96.0615 81.5195H96.4854V81.0957H96.0615V81.5195ZM93.6367 81.5195H94.0615V81.0957H93.6367V81.5195ZM91.2129 81.5195H91.6367V81.0957H91.2129V81.5195ZM125.149 79.0957H125.573V78.6719H125.149V79.0957ZM122.726 79.0957H123.149V78.6719H122.726V79.0957ZM120.302 79.0957H120.726V78.6719H120.302V79.0957ZM117.877 79.0957H118.302V78.6719H117.877V79.0957ZM115.453 79.0957H115.877V78.6719H115.453V79.0957ZM113.029 79.0957H113.453V78.6719H113.029V79.0957ZM110.605 79.0957H111.029V78.6719H110.605V79.0957ZM108.182 79.0957H108.605V78.6719H108.182V79.0957ZM105.757 79.0957H106.182V78.6719H105.757V79.0957ZM103.333 79.0957H103.757V78.6719H103.333V79.0957ZM100.909 79.0957H101.333V78.6719H100.909V79.0957ZM98.4854 79.0957H98.9092V78.6719H98.4854V79.0957ZM96.0615 79.0957H96.4854V78.6719H96.0615V79.0957ZM93.6367 79.0957H94.0615V78.6719H93.6367V79.0957ZM91.2129 79.0957H91.6367V78.6719H91.2129V79.0957ZM125.149 76.6719H125.573V76.248H125.149V76.6719ZM122.726 76.6719H123.149V76.248H122.726V76.6719ZM120.302 76.6719H120.726V76.248H120.302V76.6719ZM117.877 76.6719H118.302V76.248H117.877V76.6719ZM115.453 76.6719H115.877V76.248H115.453V76.6719ZM113.029 76.6719H113.453V76.248H113.029V76.6719ZM110.605 76.6719H111.029V76.248H110.605V76.6719ZM108.182 76.6719H108.605V76.248H108.182V76.6719ZM105.757 76.6719H106.182V76.248H105.757V76.6719ZM103.333 76.6719H103.757V76.248H103.333V76.6719ZM100.909 76.6719H101.333V76.248H100.909V76.6719ZM98.4854 76.6719H98.9092V76.248H98.4854V76.6719ZM96.0615 76.6719H96.4854V76.248H96.0615V76.6719ZM93.6367 76.6719H94.0615V76.248H93.6367V76.6719ZM91.2129 76.6719H91.6367V76.248H91.2129V76.6719ZM122.726 74.248H123.149V73.8232H122.726V74.248ZM120.302 74.248H120.726V73.8232H120.302V74.248ZM117.877 74.248H118.302V73.8232H117.877V74.248ZM115.453 74.248H115.877V73.8232H115.453V74.248ZM113.029 74.248H113.453V73.8232H113.029V74.248ZM110.605 74.248H111.029V73.8232H110.605V74.248ZM108.182 74.248H108.605V73.8232H108.182V74.248ZM105.757 74.248H106.182V73.8232H105.757V74.248ZM103.333 74.248H103.757V73.8232H103.333V74.248ZM100.909 74.248H101.333V73.8232H100.909V74.248ZM98.4854 74.248H98.9092V73.8232H98.4854V74.248ZM96.0615 74.248H96.4854V73.8232H96.0615V74.248ZM93.6367 74.248H94.0615V73.8232H93.6367V74.248ZM91.2129 74.248H91.6367V73.8232H91.2129V74.248ZM117.877 71.8232H118.302V71.3994H117.877V71.8232ZM115.453 71.8232H115.877V71.3994H115.453V71.8232ZM113.029 71.8232H113.453V71.3994H113.029V71.8232ZM110.605 71.8232H111.029V71.3994H110.605V71.8232ZM108.182 71.8232H108.605V71.3994H108.182V71.8232ZM105.757 71.8232H106.182V71.3994H105.757V71.8232ZM103.333 71.8232H103.757V71.3994H103.333V71.8232ZM100.909 71.8232H101.333V71.3994H100.909V71.8232ZM98.4854 71.8232H98.9092V71.3994H98.4854V71.8232ZM96.0615 71.8232H96.4854V71.3994H96.0615V71.8232ZM93.6367 71.8232H94.0615V71.3994H93.6367V71.8232ZM91.2129 71.8232H91.6367V71.3994H91.2129V71.8232Z" fill="#414141"/>
<path d="M70.7988 131H68.375V70.3994H70.7988V131ZM73.2227 131H70.7988V70.3994H73.2227V131ZM75.6465 131H73.2227V70.3994H75.6465V131ZM78.0703 131H75.6465V70.3994H78.0703V131ZM80.4951 131H78.0703V70.3994H80.4951V131ZM79.0703 130H79.4951V129.576H79.0703V130ZM76.6465 130H77.0703V129.576H76.6465V130ZM74.2227 130H74.6465V129.576H74.2227V130ZM71.7988 130H72.2227V129.576H71.7988V130ZM69.375 130H69.7988V129.576H69.375V130ZM79.0703 127.576H79.4951V127.152H79.0703V127.576ZM76.6465 127.576H77.0703V127.152H76.6465V127.576ZM74.2227 127.576H74.6465V127.152H74.2227V127.576ZM71.7988 127.576H72.2227V127.152H71.7988V127.576ZM69.375 127.576H69.7988V127.152H69.375V127.576ZM79.0703 125.152H79.4951V124.728H79.0703V125.152ZM76.6465 125.152H77.0703V124.728H76.6465V125.152ZM74.2227 125.152H74.6465V124.728H74.2227V125.152ZM71.7988 125.152H72.2227V124.728H71.7988V125.152ZM69.375 125.152H69.7988V124.728H69.375V125.152ZM79.0703 122.728H79.4951V122.304H79.0703V122.728ZM76.6465 122.728H77.0703V122.304H76.6465V122.728ZM74.2227 122.728H74.6465V122.304H74.2227V122.728ZM71.7988 122.728H72.2227V122.304H71.7988V122.728ZM69.375 122.728H69.7988V122.304H69.375V122.728ZM79.0703 120.304H79.4951V119.88H79.0703V120.304ZM76.6465 120.304H77.0703V119.88H76.6465V120.304ZM74.2227 120.304H74.6465V119.88H74.2227V120.304ZM71.7988 120.304H72.2227V119.88H71.7988V120.304ZM69.375 120.304H69.7988V119.88H69.375V120.304ZM79.0703 117.88H79.4951V117.456H79.0703V117.88ZM76.6465 117.88H77.0703V117.456H76.6465V117.88ZM74.2227 117.88H74.6465V117.456H74.2227V117.88ZM71.7988 117.88H72.2227V117.456H71.7988V117.88ZM69.375 117.88H69.7988V117.456H69.375V117.88ZM79.0703 115.456H79.4951V115.032H79.0703V115.456ZM76.6465 115.456H77.0703V115.032H76.6465V115.456ZM74.2227 115.456H74.6465V115.032H74.2227V115.456ZM71.7988 115.456H72.2227V115.032H71.7988V115.456ZM69.375 115.456H69.7988V115.032H69.375V115.456ZM79.0703 113.032H79.4951V112.607H79.0703V113.032ZM76.6465 113.032H77.0703V112.607H76.6465V113.032ZM74.2227 113.032H74.6465V112.607H74.2227V113.032ZM71.7988 113.032H72.2227V112.607H71.7988V113.032ZM69.375 113.032H69.7988V112.607H69.375V113.032ZM79.0703 110.607H79.4951V110.184H79.0703V110.607ZM76.6465 110.607H77.0703V110.184H76.6465V110.607ZM74.2227 110.607H74.6465V110.184H74.2227V110.607ZM71.7988 110.607H72.2227V110.184H71.7988V110.607ZM69.375 110.607H69.7988V110.184H69.375V110.607ZM79.0703 108.184H79.4951V107.76H79.0703V108.184ZM76.6465 108.184H77.0703V107.76H76.6465V108.184ZM74.2227 108.184H74.6465V107.76H74.2227V108.184ZM71.7988 108.184H72.2227V107.76H71.7988V108.184ZM69.375 108.184H69.7988V107.76H69.375V108.184ZM79.0703 105.76H79.4951V105.336H79.0703V105.76ZM76.6465 105.76H77.0703V105.336H76.6465V105.76ZM74.2227 105.76H74.6465V105.336H74.2227V105.76ZM71.7988 105.76H72.2227V105.336H71.7988V105.76ZM69.375 105.76H69.7988V105.336H69.375V105.76ZM79.0703 103.336H79.4951V102.912H79.0703V103.336ZM76.6465 103.336H77.0703V102.912H76.6465V103.336ZM74.2227 103.336H74.6465V102.912H74.2227V103.336ZM71.7988 103.336H72.2227V102.912H71.7988V103.336ZM69.375 103.336H69.7988V102.912H69.375V103.336ZM79.0703 100.912H79.4951V100.488H79.0703V100.912ZM76.6465 100.912H77.0703V100.488H76.6465V100.912ZM74.2227 100.912H74.6465V100.488H74.2227V100.912ZM71.7988 100.912H72.2227V100.488H71.7988V100.912ZM69.375 100.912H69.7988V100.488H69.375V100.912ZM79.0703 98.4883H79.4951V98.0635H79.0703V98.4883ZM76.6465 98.4883H77.0703V98.0635H76.6465V98.4883ZM74.2227 98.4883H74.6465V98.0635H74.2227V98.4883ZM71.7988 98.4883H72.2227V98.0635H71.7988V98.4883ZM69.375 98.4883H69.7988V98.0635H69.375V98.4883ZM79.0703 96.0635H79.4951V95.6396H79.0703V96.0635ZM76.6465 96.0635H77.0703V95.6396H76.6465V96.0635ZM74.2227 96.0635H74.6465V95.6396H74.2227V96.0635ZM71.7988 96.0635H72.2227V95.6396H71.7988V96.0635ZM69.375 96.0635H69.7988V95.6396H69.375V96.0635ZM79.0703 93.6396H79.4951V93.2158H79.0703V93.6396ZM76.6465 93.6396H77.0703V93.2158H76.6465V93.6396ZM74.2227 93.6396H74.6465V93.2158H74.2227V93.6396ZM71.7988 93.6396H72.2227V93.2158H71.7988V93.6396ZM69.375 93.6396H69.7988V93.2158H69.375V93.6396ZM79.0703 91.2158H79.4951V90.792H79.0703V91.2158ZM76.6465 91.2158H77.0703V90.792H76.6465V91.2158ZM74.2227 91.2158H74.6465V90.792H74.2227V91.2158ZM71.7988 91.2158H72.2227V90.792H71.7988V91.2158ZM69.375 91.2158H69.7988V90.792H69.375V91.2158ZM79.0703 88.792H79.4951V88.3682H79.0703V88.792ZM76.6465 88.792H77.0703V88.3682H76.6465V88.792ZM74.2227 88.792H74.6465V88.3682H74.2227V88.792ZM71.7988 88.792H72.2227V88.3682H71.7988V88.792ZM69.375 88.792H69.7988V88.3682H69.375V88.792ZM79.0703 86.3682H79.4951V85.9434H79.0703V86.3682ZM76.6465 86.3682H77.0703V85.9434H76.6465V86.3682ZM74.2227 86.3682H74.6465V85.9434H74.2227V86.3682ZM71.7988 86.3682H72.2227V85.9434H71.7988V86.3682ZM69.375 86.3682H69.7988V85.9434H69.375V86.3682ZM79.0703 83.9434H79.4951V83.5195H79.0703V83.9434ZM76.6465 83.9434H77.0703V83.5195H76.6465V83.9434ZM74.2227 83.9434H74.6465V83.5195H74.2227V83.9434ZM71.7988 83.9434H72.2227V83.5195H71.7988V83.9434ZM69.375 83.9434H69.7988V83.5195H69.375V83.9434ZM79.0703 81.5195H79.4951V81.0957H79.0703V81.5195ZM76.6465 81.5195H77.0703V81.0957H76.6465V81.5195ZM74.2227 81.5195H74.6465V81.0957H74.2227V81.5195ZM71.7988 81.5195H72.2227V81.0957H71.7988V81.5195ZM69.375 81.5195H69.7988V81.0957H69.375V81.5195ZM79.0703 79.0957H79.4951V78.6719H79.0703V79.0957ZM76.6465 79.0957H77.0703V78.6719H76.6465V79.0957ZM74.2227 79.0957H74.6465V78.6719H74.2227V79.0957ZM71.7988 79.0957H72.2227V78.6719H71.7988V79.0957ZM69.375 79.0957H69.7988V78.6719H69.375V79.0957ZM79.0703 76.6719H79.4951V76.248H79.0703V76.6719ZM76.6465 76.6719H77.0703V76.248H76.6465V76.6719ZM74.2227 76.6719H74.6465V76.248H74.2227V76.6719ZM71.7988 76.6719H72.2227V76.248H71.7988V76.6719ZM69.375 76.6719H69.7988V76.248H69.375V76.6719ZM79.0703 74.248H79.4951V73.8232H79.0703V74.248ZM76.6465 74.248H77.0703V73.8232H76.6465V74.248ZM74.2227 74.248H74.6465V73.8232H74.2227V74.248ZM71.7988 74.248H72.2227V73.8232H71.7988V74.248ZM69.375 74.248H69.7988V73.8232H69.375V74.248ZM79.0703 71.8232H79.4951V71.3994H79.0703V71.8232ZM76.6465 71.8232H77.0703V71.3994H76.6465V71.8232ZM74.2227 71.8232H74.6465V71.3994H74.2227V71.8232ZM71.7988 71.8232H72.2227V71.3994H71.7988V71.8232ZM69.375 71.8232H69.7988V71.3994H69.375V71.8232Z" fill="#414141"/>
<path d="M36.8164 131H34.3926V114.032H36.8164V131ZM39.2402 131H36.8164V116.456H39.2402V131ZM41.6641 131H39.2402V116.456H41.6641V131ZM44.0879 131H41.6641V114.032H44.0879V131ZM42.6641 130H43.0879V129.576H42.6641V130ZM40.2402 130H40.6641V129.576H40.2402V130ZM37.8164 130H38.2402V129.576H37.8164V130ZM35.3926 130H35.8164V129.576H35.3926V130ZM34.3926 128.576H31.9678V111.607H34.3926V128.576ZM46.5117 128.576H44.0879V111.607H46.5117V128.576ZM45.0879 127.576H45.5117V127.152H45.0879V127.576ZM42.6641 127.576H43.0879V127.152H42.6641V127.576ZM40.2402 127.576H40.6641V127.152H40.2402V127.576ZM37.8164 127.576H38.2402V127.152H37.8164V127.576ZM35.3926 127.576H35.8164V127.152H35.3926V127.576ZM32.9678 127.576H33.3926V127.152H32.9678V127.576ZM31.9678 126.152H29.5439V70.3994H31.9678V126.152ZM48.9365 126.152H46.5117V70.3994H48.9365V126.152ZM47.5117 125.152H47.9365V124.728H47.5117V125.152ZM45.0879 125.152H45.5117V124.728H45.0879V125.152ZM42.6641 125.152H43.0879V124.728H42.6641V125.152ZM40.2402 125.152H40.6641V124.728H40.2402V125.152ZM37.8164 125.152H38.2402V124.728H37.8164V125.152ZM35.3926 125.152H35.8164V124.728H35.3926V125.152ZM32.9678 125.152H33.3926V124.728H32.9678V125.152ZM30.5439 125.152H30.9678V124.728H30.5439V125.152ZM29.5439 123.728H27.1201V70.3994H29.5439V123.728ZM51.3604 123.728H48.9365V70.3994H51.3604V123.728ZM49.9365 122.728H50.3604V122.304H49.9365V122.728ZM47.5117 122.728H47.9365V122.304H47.5117V122.728ZM45.0879 122.728H45.5117V122.304H45.0879V122.728ZM42.6641 122.728H43.0879V122.304H42.6641V122.728ZM40.2402 122.728H40.6641V122.304H40.2402V122.728ZM37.8164 122.728H38.2402V122.304H37.8164V122.728ZM35.3926 122.728H35.8164V122.304H35.3926V122.728ZM32.9678 122.728H33.3926V122.304H32.9678V122.728ZM30.5439 122.728H30.9678V122.304H30.5439V122.728ZM28.1201 122.728H28.5439V122.304H28.1201V122.728ZM27.1201 121.304H24.6963V70.3994H27.1201V121.304ZM53.7842 121.304H51.3604V70.3994H53.7842V121.304ZM52.3604 120.304H52.7842V119.88H52.3604V120.304ZM49.9365 120.304H50.3604V119.88H49.9365V120.304ZM47.5117 120.304H47.9365V119.88H47.5117V120.304ZM45.0879 120.304H45.5117V119.88H45.0879V120.304ZM42.6641 120.304H43.0879V119.88H42.6641V120.304ZM40.2402 120.304H40.6641V119.88H40.2402V120.304ZM37.8164 120.304H38.2402V119.88H37.8164V120.304ZM35.3926 120.304H35.8164V119.88H35.3926V120.304ZM32.9678 120.304H33.3926V119.88H32.9678V120.304ZM30.5439 120.304H30.9678V119.88H30.5439V120.304ZM28.1201 120.304H28.5439V119.88H28.1201V120.304ZM25.6963 120.304H26.1201V119.88H25.6963V120.304ZM24.6963 118.88H22.2725V70.3994H24.6963V118.88ZM56.208 118.88H53.7842V70.3994H56.208V118.88ZM54.7842 117.88H55.208V117.456H54.7842V117.88ZM52.3604 117.88H52.7842V117.456H52.3604V117.88ZM49.9365 117.88H50.3604V117.456H49.9365V117.88ZM47.5117 117.88H47.9365V117.456H47.5117V117.88ZM45.0879 117.88H45.5117V117.456H45.0879V117.88ZM42.6641 117.88H43.0879V117.456H42.6641V117.88ZM40.2402 117.88H40.6641V117.456H40.2402V117.88ZM37.8164 117.88H38.2402V117.456H37.8164V117.88ZM35.3926 117.88H35.8164V117.456H35.3926V117.88ZM32.9678 117.88H33.3926V117.456H32.9678V117.88ZM30.5439 117.88H30.9678V117.456H30.5439V117.88ZM28.1201 117.88H28.5439V117.456H28.1201V117.88ZM25.6963 117.88H26.1201V117.456H25.6963V117.88ZM23.2725 117.88H23.6963V117.456H23.2725V117.88ZM22.2725 116.456H19.8477V70.3994H22.2725V116.456ZM58.6318 116.456H56.208V70.3994H58.6318V116.456ZM57.208 115.456H57.6318V115.032H57.208V115.456ZM54.7842 115.456H55.208V115.032H54.7842V115.456ZM52.3604 115.456H52.7842V115.032H52.3604V115.456ZM49.9365 115.456H50.3604V115.032H49.9365V115.456ZM47.5117 115.456H47.9365V115.032H47.5117V115.456ZM45.0879 115.456H45.5117V115.032H45.0879V115.456ZM42.6641 115.456H43.0879V115.032H42.6641V115.456ZM35.3926 115.456H35.8164V115.032H35.3926V115.456ZM32.9678 115.456H33.3926V115.032H32.9678V115.456ZM30.5439 115.456H30.9678V115.032H30.5439V115.456ZM28.1201 115.456H28.5439V115.032H28.1201V115.456ZM25.6963 115.456H26.1201V115.032H25.6963V115.456ZM23.2725 115.456H23.6963V115.032H23.2725V115.456ZM20.8477 115.456H21.2725V115.032H20.8477V115.456ZM57.208 113.032H57.6318V112.607H57.208V113.032ZM54.7842 113.032H55.208V112.607H54.7842V113.032ZM52.3604 113.032H52.7842V112.607H52.3604V113.032ZM49.9365 113.032H50.3604V112.607H49.9365V113.032ZM47.5117 113.032H47.9365V112.607H47.5117V113.032ZM45.0879 113.032H45.5117V112.607H45.0879V113.032ZM32.9678 113.032H33.3926V112.607H32.9678V113.032ZM30.5439 113.032H30.9678V112.607H30.5439V113.032ZM28.1201 113.032H28.5439V112.607H28.1201V113.032ZM25.6963 113.032H26.1201V112.607H25.6963V113.032ZM23.2725 113.032H23.6963V112.607H23.2725V113.032ZM20.8477 113.032H21.2725V112.607H20.8477V113.032ZM57.208 110.607H57.6318V110.184H57.208V110.607ZM54.7842 110.607H55.208V110.184H54.7842V110.607ZM52.3604 110.607H52.7842V110.184H52.3604V110.607ZM49.9365 110.607H50.3604V110.184H49.9365V110.607ZM47.5117 110.607H47.9365V110.184H47.5117V110.607ZM30.5439 110.607H30.9678V110.184H30.5439V110.607ZM28.1201 110.607H28.5439V110.184H28.1201V110.607ZM25.6963 110.607H26.1201V110.184H25.6963V110.607ZM23.2725 110.607H23.6963V110.184H23.2725V110.607ZM20.8477 110.607H21.2725V110.184H20.8477V110.607ZM57.208 108.184H57.6318V107.76H57.208V108.184ZM54.7842 108.184H55.208V107.76H54.7842V108.184ZM52.3604 108.184H52.7842V107.76H52.3604V108.184ZM49.9365 108.184H50.3604V107.76H49.9365V108.184ZM47.5117 108.184H47.9365V107.76H47.5117V108.184ZM30.5439 108.184H30.9678V107.76H30.5439V108.184ZM28.1201 108.184H28.5439V107.76H28.1201V108.184ZM25.6963 108.184H26.1201V107.76H25.6963V108.184ZM23.2725 108.184H23.6963V107.76H23.2725V108.184ZM20.8477 108.184H21.2725V107.76H20.8477V108.184ZM57.208 105.76H57.6318V105.336H57.208V105.76ZM54.7842 105.76H55.208V105.336H54.7842V105.76ZM52.3604 105.76H52.7842V105.336H52.3604V105.76ZM49.9365 105.76H50.3604V105.336H49.9365V105.76ZM47.5117 105.76H47.9365V105.336H47.5117V105.76ZM30.5439 105.76H30.9678V105.336H30.5439V105.76ZM28.1201 105.76H28.5439V105.336H28.1201V105.76ZM25.6963 105.76H26.1201V105.336H25.6963V105.76ZM23.2725 105.76H23.6963V105.336H23.2725V105.76ZM20.8477 105.76H21.2725V105.336H20.8477V105.76ZM57.208 103.336H57.6318V102.912H57.208V103.336ZM54.7842 103.336H55.208V102.912H54.7842V103.336ZM52.3604 103.336H52.7842V102.912H52.3604V103.336ZM49.9365 103.336H50.3604V102.912H49.9365V103.336ZM47.5117 103.336H47.9365V102.912H47.5117V103.336ZM30.5439 103.336H30.9678V102.912H30.5439V103.336ZM28.1201 103.336H28.5439V102.912H28.1201V103.336ZM25.6963 103.336H26.1201V102.912H25.6963V103.336ZM23.2725 103.336H23.6963V102.912H23.2725V103.336ZM20.8477 103.336H21.2725V102.912H20.8477V103.336ZM57.208 100.912H57.6318V100.488H57.208V100.912ZM54.7842 100.912H55.208V100.488H54.7842V100.912ZM52.3604 100.912H52.7842V100.488H52.3604V100.912ZM49.9365 100.912H50.3604V100.488H49.9365V100.912ZM47.5117 100.912H47.9365V100.488H47.5117V100.912ZM30.5439 100.912H30.9678V100.488H30.5439V100.912ZM28.1201 100.912H28.5439V100.488H28.1201V100.912ZM25.6963 100.912H26.1201V100.488H25.6963V100.912ZM23.2725 100.912H23.6963V100.488H23.2725V100.912ZM20.8477 100.912H21.2725V100.488H20.8477V100.912ZM57.208 98.4883H57.6318V98.0635H57.208V98.4883ZM54.7842 98.4883H55.208V98.0635H54.7842V98.4883ZM52.3604 98.4883H52.7842V98.0635H52.3604V98.4883ZM49.9365 98.4883H50.3604V98.0635H49.9365V98.4883ZM47.5117 98.4883H47.9365V98.0635H47.5117V98.4883ZM30.5439 98.4883H30.9678V98.0635H30.5439V98.4883ZM28.1201 98.4883H28.5439V98.0635H28.1201V98.4883ZM25.6963 98.4883H26.1201V98.0635H25.6963V98.4883ZM23.2725 98.4883H23.6963V98.0635H23.2725V98.4883ZM20.8477 98.4883H21.2725V98.0635H20.8477V98.4883ZM57.208 96.0635H57.6318V95.6396H57.208V96.0635ZM54.7842 96.0635H55.208V95.6396H54.7842V96.0635ZM52.3604 96.0635H52.7842V95.6396H52.3604V96.0635ZM49.9365 96.0635H50.3604V95.6396H49.9365V96.0635ZM47.5117 96.0635H47.9365V95.6396H47.5117V96.0635ZM30.5439 96.0635H30.9678V95.6396H30.5439V96.0635ZM28.1201 96.0635H28.5439V95.6396H28.1201V96.0635ZM25.6963 96.0635H26.1201V95.6396H25.6963V96.0635ZM23.2725 96.0635H23.6963V95.6396H23.2725V96.0635ZM20.8477 96.0635H21.2725V95.6396H20.8477V96.0635ZM57.208 93.6396H57.6318V93.2158H57.208V93.6396ZM54.7842 93.6396H55.208V93.2158H54.7842V93.6396ZM52.3604 93.6396H52.7842V93.2158H52.3604V93.6396ZM49.9365 93.6396H50.3604V93.2158H49.9365V93.6396ZM47.5117 93.6396H47.9365V93.2158H47.5117V93.6396ZM30.5439 93.6396H30.9678V93.2158H30.5439V93.6396ZM28.1201 93.6396H28.5439V93.2158H28.1201V93.6396ZM25.6963 93.6396H26.1201V93.2158H25.6963V93.6396ZM23.2725 93.6396H23.6963V93.2158H23.2725V93.6396ZM20.8477 93.6396H21.2725V93.2158H20.8477V93.6396ZM57.208 91.2158H57.6318V90.792H57.208V91.2158ZM54.7842 91.2158H55.208V90.792H54.7842V91.2158ZM52.3604 91.2158H52.7842V90.792H52.3604V91.2158ZM49.9365 91.2158H50.3604V90.792H49.9365V91.2158ZM47.5117 91.2158H47.9365V90.792H47.5117V91.2158ZM30.5439 91.2158H30.9678V90.792H30.5439V91.2158ZM28.1201 91.2158H28.5439V90.792H28.1201V91.2158ZM25.6963 91.2158H26.1201V90.792H25.6963V91.2158ZM23.2725 91.2158H23.6963V90.792H23.2725V91.2158ZM20.8477 91.2158H21.2725V90.792H20.8477V91.2158ZM57.208 88.792H57.6318V88.3682H57.208V88.792ZM54.7842 88.792H55.208V88.3682H54.7842V88.792ZM52.3604 88.792H52.7842V88.3682H52.3604V88.792ZM49.9365 88.792H50.3604V88.3682H49.9365V88.792ZM47.5117 88.792H47.9365V88.3682H47.5117V88.792ZM30.5439 88.792H30.9678V88.3682H30.5439V88.792ZM28.1201 88.792H28.5439V88.3682H28.1201V88.792ZM25.6963 88.792H26.1201V88.3682H25.6963V88.792ZM23.2725 88.792H23.6963V88.3682H23.2725V88.792ZM20.8477 88.792H21.2725V88.3682H20.8477V88.792ZM57.208 86.3682H57.6318V85.9434H57.208V86.3682ZM54.7842 86.3682H55.208V85.9434H54.7842V86.3682ZM52.3604 86.3682H52.7842V85.9434H52.3604V86.3682ZM49.9365 86.3682H50.3604V85.9434H49.9365V86.3682ZM47.5117 86.3682H47.9365V85.9434H47.5117V86.3682ZM30.5439 86.3682H30.9678V85.9434H30.5439V86.3682ZM28.1201 86.3682H28.5439V85.9434H28.1201V86.3682ZM25.6963 86.3682H26.1201V85.9434H25.6963V86.3682ZM23.2725 86.3682H23.6963V85.9434H23.2725V86.3682ZM20.8477 86.3682H21.2725V85.9434H20.8477V86.3682ZM57.208 83.9434H57.6318V83.5195H57.208V83.9434ZM54.7842 83.9434H55.208V83.5195H54.7842V83.9434ZM52.3604 83.9434H52.7842V83.5195H52.3604V83.9434ZM49.9365 83.9434H50.3604V83.5195H49.9365V83.9434ZM47.5117 83.9434H47.9365V83.5195H47.5117V83.9434ZM30.5439 83.9434H30.9678V83.5195H30.5439V83.9434ZM28.1201 83.9434H28.5439V83.5195H28.1201V83.9434ZM25.6963 83.9434H26.1201V83.5195H25.6963V83.9434ZM23.2725 83.9434H23.6963V83.5195H23.2725V83.9434ZM20.8477 83.9434H21.2725V83.5195H20.8477V83.9434ZM57.208 81.5195H57.6318V81.0957H57.208V81.5195ZM54.7842 81.5195H55.208V81.0957H54.7842V81.5195ZM52.3604 81.5195H52.7842V81.0957H52.3604V81.5195ZM49.9365 81.5195H50.3604V81.0957H49.9365V81.5195ZM47.5117 81.5195H47.9365V81.0957H47.5117V81.5195ZM30.5439 81.5195H30.9678V81.0957H30.5439V81.5195ZM28.1201 81.5195H28.5439V81.0957H28.1201V81.5195ZM25.6963 81.5195H26.1201V81.0957H25.6963V81.5195ZM23.2725 81.5195H23.6963V81.0957H23.2725V81.5195ZM20.8477 81.5195H21.2725V81.0957H20.8477V81.5195ZM57.208 79.0957H57.6318V78.6719H57.208V79.0957ZM54.7842 79.0957H55.208V78.6719H54.7842V79.0957ZM52.3604 79.0957H52.7842V78.6719H52.3604V79.0957ZM49.9365 79.0957H50.3604V78.6719H49.9365V79.0957ZM47.5117 79.0957H47.9365V78.6719H47.5117V79.0957ZM30.5439 79.0957H30.9678V78.6719H30.5439V79.0957ZM28.1201 79.0957H28.5439V78.6719H28.1201V79.0957ZM25.6963 79.0957H26.1201V78.6719H25.6963V79.0957ZM23.2725 79.0957H23.6963V78.6719H23.2725V79.0957ZM20.8477 79.0957H21.2725V78.6719H20.8477V79.0957ZM57.208 76.6719H57.6318V76.248H57.208V76.6719ZM54.7842 76.6719H55.208V76.248H54.7842V76.6719ZM52.3604 76.6719H52.7842V76.248H52.3604V76.6719ZM49.9365 76.6719H50.3604V76.248H49.9365V76.6719ZM47.5117 76.6719H47.9365V76.248H47.5117V76.6719ZM30.5439 76.6719H30.9678V76.248H30.5439V76.6719ZM28.1201 76.6719H28.5439V76.248H28.1201V76.6719ZM25.6963 76.6719H26.1201V76.248H25.6963V76.6719ZM23.2725 76.6719H23.6963V76.248H23.2725V76.6719ZM20.8477 76.6719H21.2725V76.248H20.8477V76.6719ZM57.208 74.248H57.6318V73.8232H57.208V74.248ZM54.7842 74.248H55.208V73.8232H54.7842V74.248ZM52.3604 74.248H52.7842V73.8232H52.3604V74.248ZM49.9365 74.248H50.3604V73.8232H49.9365V74.248ZM47.5117 74.248H47.9365V73.8232H47.5117V74.248ZM30.5439 74.248H30.9678V73.8232H30.5439V74.248ZM28.1201 74.248H28.5439V73.8232H28.1201V74.248ZM25.6963 74.248H26.1201V73.8232H25.6963V74.248ZM23.2725 74.248H23.6963V73.8232H23.2725V74.248ZM20.8477 74.248H21.2725V73.8232H20.8477V74.248ZM57.208 71.8232H57.6318V71.3994H57.208V71.8232ZM54.7842 71.8232H55.208V71.3994H54.7842V71.8232ZM52.3604 71.8232H52.7842V71.3994H52.3604V71.8232ZM49.9365 71.8232H50.3604V71.3994H49.9365V71.8232ZM47.5117 71.8232H47.9365V71.3994H47.5117V71.8232ZM30.5439 71.8232H30.9678V71.3994H30.5439V71.8232ZM28.1201 71.8232H28.5439V71.3994H28.1201V71.8232ZM25.6963 71.8232H26.1201V71.3994H25.6963V71.8232ZM23.2725 71.8232H23.6963V71.3994H23.2725V71.8232ZM20.8477 71.8232H21.2725V71.3994H20.8477V71.8232Z" fill="#414141"/>
</g>
<defs>
<clipPath id="clip0_302_192">
<rect width="200" height="200" fill="white"/>
</clipPath>
</defs>
</svg>
